<svg width="71" height="100" viewBox="0 0 71 100" fill="none" xmlns="http://www.w3.org/2000/svg">
<g clip-path="url(#clip0_502_1124)">
<path d="M35.3936 99.7471L6.55069 91.7355L0.123047 19.6025H70.7504L64.3161 91.7244L35.3936 99.7471Z" fill="#264DE4"/>
<path d="M58.8079 87.1325L64.3062 25.501H35.437V93.6154L58.8079 87.1325Z" fill="#2965F1"/>
<path d="M14.8581 52.2537L15.6504 61.1006H35.4367V52.2537H14.8581ZM13.2656 34.3477L14.0693 43.1945H35.4367V34.3477H13.2656ZM35.4367 75.2299L35.3979 75.2402L25.5509 72.5798L24.9213 65.5241H16.0455L17.2841 79.415L35.396 84.4454L35.4367 84.4344V75.2299Z" fill="#EBEBEB"/>
<path d="M16.7451 0H27.4537V4.48089H21.2235V8.96177H27.4543V13.4424H16.7451V0ZM29.5957 0H40.3046V3.8964H34.074V4.67562H40.3046V13.6374H29.596V9.54571H35.8265V8.76648H29.5954L29.5957 0ZM42.4466 0H53.1554V3.8964H46.9249V4.67562H53.1554V13.6374H42.4466V9.54571H48.6771V8.76648H42.4468V0H42.4466Z" fill="black"/>
<path d="M55.9591 52.2538L57.5551 34.3477H35.4065V43.1945H47.8654L47.0608 52.2538H35.4065V61.1006H46.2942L45.2677 72.5743L35.4062 75.2374V84.4413L53.5325 79.415L53.6654 77.9202L55.7434 54.6294L55.9591 52.2538Z" fill="white"/>
</g>
<defs>
<clipPath id="clip0_502_1124">
<rect width="70.8738" height="100" fill="white"/>
</clipPath>
</defs>
</svg>
