<svg width="124" height="28" viewBox="0 0 124 28" fill="none" xmlns="http://www.w3.org/2000/svg">
<g clip-path="url(#clip0_502_1130)">
<path d="M38.5299 27.8201V0.740117H39.9999V5.00012C40.1735 4.8114 40.3339 4.61093 40.4799 4.40012C41.0806 3.15324 42.0242 2.10341 43.2002 1.3737C44.3763 0.643998 45.7359 0.264646 47.1199 0.280115C50.4699 0.180115 53.1899 1.42012 54.7899 4.40012C55.8079 6.25134 56.3682 8.31931 56.4239 10.4313C56.4795 12.5432 56.029 14.6378 55.1099 16.5401C53.6199 19.8801 49.9399 21.5401 45.9999 20.9301C44.7738 20.8257 43.5934 20.4159 42.5663 19.7382C41.5392 19.0604 40.6982 18.1363 40.1199 17.0501V27.8201H38.5299ZM39.9999 10.3201C40.1299 11.6401 40.1799 12.5801 40.3299 13.5001C40.9099 17.1201 43.0499 19.2701 46.4099 19.6601C47.9876 19.9195 49.6063 19.6237 50.9904 18.8232C52.3744 18.0226 53.438 16.767 53.9999 15.2701C54.6456 13.7305 54.9563 12.0711 54.9115 10.4021C54.8667 8.73319 54.4673 7.09287 53.7399 5.59012C53.1401 4.24851 52.12 3.1385 50.8338 2.42772C49.5475 1.71694 48.0649 1.444 46.6099 1.65012C45.2438 1.7491 43.9424 2.27129 42.8868 3.14409C41.8312 4.01689 41.0738 5.19693 40.7199 6.52012C40.4067 7.77181 40.1663 9.0406 39.9999 10.3201ZM86.4099 14.0001C86.1871 15.9067 85.2795 17.6676 83.8558 18.9552C82.4321 20.2428 80.5892 20.9695 78.6699 21.0001C72.5099 21.3101 69.6199 17.2201 69.1599 12.5001C68.8406 9.9369 69.2568 7.33575 70.3599 5.00012C71.1281 3.39801 72.3862 2.08193 73.952 1.24236C75.5179 0.402786 77.3104 0.0832916 79.0699 0.330118C80.7427 0.471895 82.3285 1.13632 83.6027 2.2293C84.877 3.32228 85.7751 4.78842 86.1699 6.42011C86.4829 7.90621 86.7132 9.40851 86.8599 10.9201H70.6699C70.3699 15.2001 72.6699 18.6401 75.9299 19.4701C79.9899 20.4701 83.4599 18.7101 84.7199 14.8501C84.9999 13.8601 85.5099 13.7201 86.4099 14.0001ZM70.6699 9.55011H85.1399C85.0499 4.99011 82.2099 1.69012 78.3599 1.64012C73.9999 1.57012 70.8599 4.75011 70.6699 9.55011ZM89.3899 14.1001H90.8099C90.8623 15.145 91.2019 16.1552 91.7911 17.0196C92.3803 17.8841 93.1965 18.5694 94.1499 19.0001C95.3471 19.5389 96.6504 19.8007 97.9627 19.766C99.2751 19.7314 100.563 19.4013 101.73 18.8001C102.366 18.5134 102.899 18.0385 103.256 17.4394C103.614 16.8404 103.779 16.146 103.73 15.4501C103.766 14.7789 103.583 14.1141 103.208 13.5565C102.832 12.9989 102.285 12.5788 101.65 12.3601C100.09 11.7801 98.4299 11.4601 96.8399 10.9501C95.1855 10.479 93.5679 9.88742 91.9999 9.18012C89.4399 7.93012 89.2799 3.06012 92.1799 1.52012C93.6648 0.682153 95.336 0.229412 97.0408 0.20321C98.7457 0.177009 100.43 0.578179 101.94 1.37011C102.855 1.87564 103.593 2.64799 104.058 3.58419C104.523 4.52038 104.691 5.57594 104.54 6.61012H103.32C103.32 6.55012 103.21 6.50011 103.21 6.44011C103.06 2.55011 99.7999 1.35011 96.2999 1.69011C95.2551 1.81899 94.2402 2.12683 93.2999 2.60011C92.7349 2.85847 92.2641 3.28584 91.9525 3.82321C91.6408 4.36058 91.5036 4.98145 91.5599 5.60011C91.5616 6.21906 91.7548 6.82232 92.1128 7.32718C92.4709 7.83204 92.9763 8.2138 93.5599 8.42011C95.0999 8.98011 96.7099 9.34011 98.2899 9.78011C99.5599 10.1301 100.88 10.3601 102.11 10.7801C102.978 11.0647 103.739 11.6062 104.293 12.333C104.846 13.0598 105.166 13.9376 105.21 14.8501C105.358 15.85 105.188 16.8712 104.723 17.7687C104.258 18.6663 103.522 19.3945 102.62 19.8501C99.2799 21.7401 93.7799 21.2401 91.3299 18.8501C90.709 18.2256 90.2178 17.4844 89.8849 16.6691C89.5519 15.8539 89.3837 14.9807 89.3899 14.1001ZM123.21 6.61012H121.88C121.88 6.43012 121.81 6.27011 121.79 6.12011C121.768 5.12317 121.405 4.16391 120.76 3.40296C120.116 2.642 119.23 2.12556 118.25 1.94011C116.401 1.4097 114.429 1.50461 112.64 2.21011C111.933 2.41289 111.31 2.83896 110.865 3.4247C110.42 4.01043 110.176 4.72444 110.17 5.46011C110.145 6.18261 110.37 6.89156 110.807 7.46727C111.245 8.04297 111.867 8.45017 112.57 8.62011C114.57 9.24011 116.62 9.62012 118.65 10.1801C119.308 10.338 119.956 10.535 120.59 10.7701C121.537 11.109 122.36 11.7258 122.951 12.5398C123.542 13.3539 123.874 14.3273 123.903 15.3329C123.933 16.3386 123.658 17.3296 123.115 18.1765C122.572 19.0235 121.786 19.6869 120.86 20.0801C119.449 20.7209 117.919 21.0599 116.369 21.0754C114.82 21.0909 113.284 20.7826 111.86 20.1701C110.689 19.6651 109.701 18.8136 109.029 17.7302C108.357 16.6468 108.032 15.3834 108.1 14.1101H109.4C109.64 15.2704 110.16 16.3546 110.914 17.2688C111.668 18.1829 112.633 18.8996 113.727 19.3566C114.82 19.8136 116.008 19.9972 117.188 19.8915C118.369 19.7858 119.505 19.3941 120.5 18.7501C121.106 18.4353 121.609 17.9533 121.949 17.3613C122.289 16.7693 122.453 16.0922 122.42 15.4101C122.45 14.7385 122.26 14.0754 121.88 13.5214C121.499 12.9674 120.948 12.5526 120.31 12.3401C118.75 11.7601 117.09 11.4501 115.5 10.9401C113.836 10.4763 112.208 9.89138 110.63 9.19011C108.13 7.96011 107.93 3.13012 110.78 1.59012C112.283 0.717046 113.987 0.248049 115.725 0.228773C117.464 0.209496 119.178 0.640596 120.7 1.48012C121.571 1.99985 122.271 2.76147 122.717 3.67226C123.163 4.58306 123.334 5.60375 123.21 6.61012ZM36.0999 20.5101C35.5763 20.7084 34.9983 20.708 34.475 20.509C33.9517 20.31 33.5194 19.9262 33.2599 19.4301C31.6299 16.9901 29.8299 14.6601 28.0999 12.2801L27.3499 11.2801C25.2899 14.0401 23.2299 16.6901 21.3499 19.4401C21.1049 19.9142 20.696 20.2831 20.1993 20.4781C19.7026 20.6731 19.1519 20.6809 18.6499 20.5001L26.3799 10.1301L19.1899 0.760114C19.7074 0.573234 20.2736 0.570672 20.7929 0.752859C21.3121 0.935045 21.7526 1.29082 22.0399 1.76011C23.7099 4.20011 25.5599 6.53012 27.3999 9.00012C29.2499 6.55012 31.0799 4.21012 32.7899 1.79012C33.0362 1.32373 33.4453 0.964142 33.9394 0.77976C34.4336 0.595377 34.9783 0.599063 35.4699 0.790117L32.6799 4.49012C31.4299 6.14012 30.1999 7.80012 28.8999 9.41012C28.7951 9.50391 28.7113 9.61874 28.654 9.74711C28.5966 9.87548 28.5669 10.0145 28.5669 10.1551C28.5669 10.2957 28.5966 10.4347 28.654 10.5631C28.7113 10.6915 28.7951 10.8063 28.8999 10.9001C31.2899 14.0701 33.6599 17.2501 36.0999 20.5101ZM68.9199 0.660116V2.06012C67.9085 1.99378 66.8944 2.14025 65.9431 2.49008C64.9918 2.83991 64.1244 3.38533 63.397 4.09112C62.6695 4.79691 62.0981 5.6474 61.7197 6.58769C61.3412 7.52797 61.1642 8.53716 61.1999 9.55011V20.5501H59.7699V0.740117H61.1699V4.80012C62.8999 1.84012 65.5699 0.740116 68.9199 0.660116ZM0.129883 10.0001C0.339883 9.00012 0.469883 7.91012 0.759883 6.89012C2.48988 0.740115 9.53988 -1.81988 14.3899 1.99012C17.2299 4.22012 17.9399 7.38011 17.7999 10.9401H1.79988C1.53988 17.3001 6.12988 21.1401 11.9999 19.1801C12.9521 18.8395 13.8045 18.2671 14.4801 17.5147C15.1558 16.7622 15.6334 15.8534 15.8699 14.8701C16.1799 13.8701 16.6799 13.7001 17.6299 13.9901C17.4734 15.2075 17.043 16.3736 16.3709 17.4007C15.6989 18.4278 14.8028 19.2892 13.7499 19.9201C12.0103 20.8714 10.0144 21.2483 8.04772 20.9968C6.08102 20.7454 4.24418 19.8785 2.79988 18.5201C1.37104 16.9136 0.507087 14.8836 0.339883 12.7401C0.339883 12.4001 0.209883 12.0601 0.139883 11.7401C0.133216 11.1468 0.129883 10.5668 0.129883 10.0001ZM1.81988 9.57012H16.2899C16.1999 4.96011 13.2899 1.69012 9.40988 1.66012C5.08988 1.60012 1.99988 4.80011 1.80988 9.55011L1.81988 9.57012Z" fill="black"/>
</g>
<defs>
<clipPath id="clip0_502_1130">
<rect width="124" height="28" fill="white"/>
</clipPath>
</defs>
</svg>
