<svg width="126" height="54" viewBox="0 0 126 54" fill="none" xmlns="http://www.w3.org/2000/svg">
<g clip-path="url(#clip0_502_1223)">
<path d="M75.3968 18.6757C72.6598 18.6757 70.6218 20.0197 70.6218 23.2547C70.6218 25.6917 71.9648 27.3837 75.2498 27.3837C78.0338 27.3837 79.9258 25.7427 79.9258 23.1537C79.9258 20.2197 78.2328 18.6757 75.3968 18.6757ZM69.9258 41.5157C69.2778 42.3107 68.6318 43.1557 68.6318 44.1527C68.6318 46.1417 71.1678 46.7397 74.6528 46.7397C77.5378 46.7397 81.4688 46.5377 81.4688 43.8547C81.4688 42.2597 79.5768 42.1617 77.1878 42.0117L69.9258 41.5157ZM84.6508 18.8257C85.5458 19.9707 86.4928 21.5627 86.4928 23.8517C86.4928 29.3737 82.1638 32.6077 75.8958 32.6077C74.3018 32.6077 72.8588 32.4097 71.9638 32.1607L70.3218 34.7977L75.1968 35.0947C83.8048 35.6437 88.8788 35.8927 88.8788 42.5077C88.8788 48.2307 83.8548 51.4627 75.1968 51.4627C66.1908 51.4627 62.7588 49.1737 62.7588 45.2447C62.7588 43.0047 63.7548 41.8137 65.4958 40.1687C63.8528 39.4747 63.3068 38.2317 63.3068 36.8877C63.3068 35.7927 63.8538 34.7977 64.7498 33.8517C65.6458 32.9077 66.6408 31.9607 67.8338 30.8667C65.3958 29.6727 63.5558 27.0857 63.5558 23.4027C63.5558 17.6817 67.3368 13.7527 74.9488 13.7527C77.0888 13.7527 78.3838 13.9497 79.5268 14.2507H89.2298V18.4787L84.6508 18.8257ZM97.9828 9.78571C95.1458 9.78571 93.5038 8.14271 93.5038 5.30571C93.5038 2.47271 95.1458 0.928711 97.9828 0.928711C100.869 0.928711 102.51 2.47171 102.51 5.30571C102.511 8.14271 100.869 9.78571 97.9828 9.78571ZM91.5628 39.6857V35.7567L94.1018 35.4087C94.7978 35.3087 94.8968 35.1597 94.8968 34.4117V19.7847C94.8968 19.2387 94.7488 18.8887 94.2498 18.7407L91.5628 17.7947L92.1098 13.7667H102.411V34.4127C102.411 35.2107 102.459 35.3087 103.207 35.4097L105.745 35.7577V39.6867L91.5628 39.6857ZM125.42 37.7557C123.279 38.7987 120.146 39.7457 117.308 39.7457C111.388 39.7457 109.15 37.3597 109.15 31.7347V18.6997C109.15 18.4027 109.15 18.2027 108.751 18.2027H105.269V13.7747C109.649 13.2757 111.389 11.0867 111.936 5.66371H116.664V12.7307C116.664 13.0777 116.664 13.2287 117.062 13.2287H124.077V18.2037H116.664V30.0937C116.664 33.0287 117.361 34.1727 120.047 34.1727C121.442 34.1727 122.883 33.8257 124.077 33.3777L125.42 37.7557Z" fill="#31251C"/>
<path d="M51.7 24.7L28.951 1.95204C28.3218 1.32307 27.4686 0.969727 26.579 0.969727C25.6894 0.969727 24.8361 1.32307 24.207 1.95204L19.483 6.67604L25.474 12.668C26.1785 12.4285 26.936 12.3911 27.6606 12.5601C28.3853 12.729 29.0481 13.0976 29.574 13.624C30.103 14.1535 30.4724 14.8211 30.6398 15.5506C30.8073 16.28 30.7661 17.0419 30.521 17.749L36.296 23.524C37.1495 23.2266 38.0788 23.228 38.9314 23.5279C39.7841 23.8278 40.5096 24.4085 40.989 25.1747C41.4684 25.941 41.6733 26.8474 41.5701 27.7453C41.4669 28.6433 41.0617 29.4795 40.421 30.117C39.7687 30.7706 38.91 31.1778 37.9912 31.2694C37.0724 31.3609 36.1502 31.1311 35.3818 30.619C34.6134 30.107 34.0463 29.3444 33.777 28.4612C33.5077 27.578 33.5529 26.6287 33.905 25.775L28.519 20.389L28.518 34.563C29.0865 34.8438 29.5799 35.256 29.9575 35.7654C30.335 36.2748 30.5858 36.8669 30.689 37.4925C30.7922 38.1181 30.7449 38.7593 30.551 39.363C30.3571 39.9667 30.0222 40.5155 29.574 40.964C29.1561 41.3818 28.6506 41.7016 28.0941 41.9004C27.5376 42.0992 26.9439 42.1719 26.3559 42.1134C25.7678 42.055 25.2001 41.8667 24.6936 41.5622C24.1872 41.2577 23.7546 40.8446 23.4272 40.3527C23.0997 39.8608 22.8855 39.3024 22.8 38.7176C22.7145 38.1329 22.7599 37.5365 22.9329 36.9714C23.1058 36.4064 23.402 35.8867 23.8001 35.45C24.1982 35.0133 24.6883 34.6704 25.235 34.446V20.141C24.7475 19.9414 24.3043 19.6471 23.9311 19.2753C23.5579 18.9034 23.262 18.4613 23.0605 17.9745C22.8591 17.4878 22.756 16.9659 22.7573 16.439C22.7586 15.9122 22.8642 15.3908 23.068 14.905L17.162 8.99704L1.56299 24.595C1.25122 24.9067 1.00391 25.2767 0.835172 25.684C0.666438 26.0912 0.57959 26.5277 0.57959 26.9685C0.57959 27.4094 0.666438 27.8459 0.835172 28.2531C1.00391 28.6604 1.25122 29.0304 1.56299 29.342L24.312 52.09C24.9415 52.7191 25.795 53.0725 26.685 53.0725C27.5749 53.0725 28.4285 52.7191 29.058 52.09L51.7 29.446C52.0117 29.1345 52.259 28.7645 52.4277 28.3574C52.5965 27.9502 52.6833 27.5138 52.6833 27.073C52.6833 26.6323 52.5965 26.1959 52.4277 25.7887C52.259 25.3815 52.0117 25.0116 51.7 24.7Z" fill="#F34F29"/>
</g>
<defs>
<clipPath id="clip0_502_1223">
<rect width="126" height="54" fill="white"/>
</clipPath>
</defs>
</svg>
