<svg width="72" height="100" viewBox="0 0 72 100" fill="none" xmlns="http://www.w3.org/2000/svg">
<path d="M70.8911 19.6025L64.4441 91.7244L35.4641 99.7471L6.56394 91.7355L0.123535 19.6025H70.8911Z" fill="#E44D26"/>
<path d="M35.5073 93.6154L58.9246 87.1325L64.4338 25.501H35.5073V93.6154Z" fill="#F16529"/>
<path d="M22.9741 43.1945H35.507V34.3477H13.292L13.5039 36.7211L15.6815 61.1006H35.507V52.2537H23.7838L22.9741 43.1945ZM24.9708 65.5241H16.0774L17.3185 79.415L35.4663 84.4454L35.507 84.4344V75.2299L35.4682 75.2402L25.6016 72.5798L24.9708 65.5241Z" fill="#EBEBEB"/>
<path d="M6.70752 0H11.2097V4.44183H15.3283V0H19.8308V13.451H15.3286V8.94681H11.21V13.451H6.7078L6.70752 0ZM25.7511 4.46066H21.7881V0H34.2195V4.46066H30.2541V13.451H25.7519V4.46066H25.7511ZM36.1924 0H40.8869L43.7746 4.72632L46.6596 0H51.3559V13.451H46.872V6.78393L43.7746 11.5665H43.6969L40.5975 6.78393V13.451H36.1924V0ZM53.5965 0H58.1001V9.00499H64.4315V13.451H53.5962V0H53.5965Z" fill="black"/>
<path d="M35.4768 61.1006H46.3862L45.3576 72.5743L35.4766 75.2374V84.4413L53.6388 79.415L53.7719 77.9202L55.8541 54.6294L56.0702 52.2537H35.4768V61.1006ZM35.4768 43.1729V43.1945H56.8763L57.0539 41.2061L57.4578 36.7211L57.6694 34.3477H35.4768V43.1729Z" fill="white"/>
</svg>
