<svg width="100" height="100" viewBox="0 0 100 100" fill="none" xmlns="http://www.w3.org/2000/svg">
<g clip-path="url(#clip0_502_1160)">
<path d="M0 0H100V100H0V0Z" fill="#F7DF1E"/>
<path d="M26.2938 83.567L33.9462 78.9357C35.4228 81.5533 36.7657 83.7682 39.9872 83.7682C43.0751 83.7682 45.0224 82.5603 45.0224 77.8619V45.9096H54.4196V77.9947C54.4196 87.7279 48.7142 92.1584 40.3899 92.1584C32.8724 92.1584 28.5087 88.265 26.2935 83.5662M59.5239 82.56L67.1755 78.1299C69.1899 81.4193 71.8079 83.8357 76.4392 83.8357C80.3333 83.8357 82.8161 81.8889 82.8161 79.2037C82.8161 75.9818 80.2653 74.8404 75.9692 72.9615L73.6204 71.9537C66.8403 69.0682 62.3431 65.4432 62.3431 57.7908C62.3431 50.7424 67.713 45.3721 76.104 45.3721C82.0782 45.3721 86.3743 47.4533 89.4618 52.8904L82.1446 57.5896C80.5333 54.7033 78.7888 53.5623 76.1036 53.5623C73.3513 53.5623 71.606 55.3076 71.606 57.5896C71.606 60.4088 73.3513 61.5506 77.3786 63.2959L79.7278 64.3025C87.7161 67.7264 92.2134 71.2166 92.2134 79.0697C92.2134 87.5283 85.5681 92.1596 76.6403 92.1596C67.9142 92.1596 62.2755 87.9978 59.5235 82.5603" fill="black"/>
</g>
<defs>
<clipPath id="clip0_502_1160">
<rect width="100" height="100" fill="white"/>
</clipPath>
</defs>
</svg>
