<svg width="66" height="26" viewBox="0 0 66 26" fill="none" xmlns="http://www.w3.org/2000/svg">
<path d="M17.7148 5.74609C17.6953 5.83724 17.653 5.90885 17.5879 5.96094C17.5228 6.01302 17.4512 6.03906 17.373 6.03906C17.2559 6.03906 17.1615 6.00326 17.0898 5.93164C17.0182 5.85352 16.9824 5.76562 16.9824 5.66797C16.9824 5.57031 16.9922 5.47591 17.0117 5.38477C17.0312 5.28711 17.041 5.19271 17.041 5.10156C17.041 4.6263 16.8945 4.19987 16.6016 3.82227C16.3086 3.44466 15.8919 3.12891 15.3516 2.875C14.8177 2.61458 14.1667 2.41602 13.3984 2.2793C12.6302 2.14258 11.7741 2.07422 10.8301 2.07422C10.1074 2.07422 9.37826 2.12305 8.64258 2.2207C7.91341 2.31185 7.21029 2.44857 6.5332 2.63086C5.86263 2.80664 5.23438 3.03125 4.64844 3.30469C4.0625 3.57161 3.55143 3.88411 3.11523 4.24219C2.68555 4.59375 2.34701 4.98763 2.09961 5.42383C1.85221 5.85352 1.72852 6.32552 1.72852 6.83984C1.72852 7.23698 1.81315 7.58854 1.98242 7.89453C2.1582 8.19401 2.39583 8.45768 2.69531 8.68555C2.99479 8.9069 3.34635 9.09896 3.75 9.26172C4.16016 9.41797 4.60286 9.55143 5.07812 9.66211C5.55339 9.76628 6.04818 9.85417 6.5625 9.92578C7.07682 9.99089 7.5944 10.0462 8.11523 10.0918L9.61914 10.2188C10.3678 10.2839 11.0384 10.3522 11.6309 10.4238C12.2233 10.4954 12.7441 10.5866 13.1934 10.6973C13.9421 10.8861 14.4954 11.1562 14.8535 11.5078C15.2116 11.8594 15.3906 12.3281 15.3906 12.9141C15.3906 13.4805 15.2344 13.9785 14.9219 14.4082C14.6094 14.8379 14.1829 15.1992 13.6426 15.4922C13.1022 15.7852 12.4707 16.0065 11.748 16.1562C11.0254 16.306 10.2507 16.3809 9.42383 16.3809C8.52539 16.3809 7.73438 16.319 7.05078 16.1953C6.3737 16.0781 5.80404 15.9479 5.3418 15.8047C4.88607 15.6549 4.53776 15.5182 4.29688 15.3945C4.05599 15.2708 3.92578 15.2025 3.90625 15.1895C3.78906 15.1243 3.73047 15.0202 3.73047 14.877C3.73047 14.7663 3.76953 14.6784 3.84766 14.6133C3.92578 14.5417 4.01042 14.5059 4.10156 14.5059C4.17318 14.5059 4.23828 14.5254 4.29688 14.5645C4.30339 14.5645 4.41406 14.623 4.62891 14.7402C4.85026 14.8509 5.17578 14.9746 5.60547 15.1113C6.04167 15.248 6.57878 15.3717 7.2168 15.4824C7.85482 15.5931 8.59701 15.6484 9.44336 15.6484C10.2832 15.6484 11.0254 15.5801 11.6699 15.4434C12.3145 15.3066 12.8548 15.1178 13.291 14.877C13.7337 14.6296 14.0658 14.3431 14.2871 14.0176C14.515 13.6855 14.6289 13.3275 14.6289 12.9434C14.6289 12.7155 14.5866 12.5202 14.502 12.3574C14.4238 12.1882 14.3132 12.0449 14.1699 11.9277C14.0267 11.804 13.8542 11.6999 13.6523 11.6152C13.457 11.5306 13.2422 11.459 13.0078 11.4004C12.7604 11.3353 12.4935 11.2799 12.207 11.2344C11.9271 11.1888 11.6374 11.1497 11.3379 11.1172C11.0384 11.0846 10.7357 11.0553 10.4297 11.0293C10.1302 11.0033 9.83398 10.9772 9.54102 10.9512L8.03711 10.8242C6.85221 10.7266 5.81706 10.5768 4.93164 10.375C4.05273 10.1667 3.32031 9.90299 2.73438 9.58398C2.14844 9.25846 1.70898 8.87109 1.41602 8.42188C1.12305 7.97266 0.976562 7.44857 0.976562 6.84961C0.976562 6.23763 1.11328 5.67773 1.38672 5.16992C1.66667 4.6556 2.04427 4.19336 2.51953 3.7832C3.0013 3.37305 3.5612 3.01823 4.19922 2.71875C4.84375 2.41276 5.5306 2.15885 6.25977 1.95703C6.98893 1.75521 7.74414 1.60547 8.52539 1.50781C9.30664 1.40365 10.0749 1.35156 10.8301 1.35156C11.7741 1.35156 12.5944 1.41016 13.291 1.52734C13.9941 1.63802 14.5931 1.78451 15.0879 1.9668C15.5892 2.14258 15.9993 2.3444 16.3184 2.57227C16.6374 2.80013 16.8945 3.02474 17.0898 3.24609C17.5521 3.78646 17.7832 4.40169 17.7832 5.0918C17.7832 5.31966 17.7604 5.53776 17.7148 5.74609ZM18.877 15.1699C18.9811 14.9486 19.1016 14.7109 19.2383 14.457C19.375 14.1966 19.5215 13.9329 19.6777 13.666C19.834 13.3926 20 13.1224 20.1758 12.8555C20.3516 12.5885 20.5339 12.3379 20.7227 12.1035C20.9115 11.8757 21.1003 11.7129 21.2891 11.6152C21.4844 11.5111 21.6667 11.459 21.8359 11.459C22.0052 11.459 22.1517 11.4948 22.2754 11.5664C22.4056 11.6315 22.5098 11.7227 22.5879 11.8398C22.6725 11.957 22.7344 12.0938 22.7734 12.25C22.819 12.4062 22.8418 12.5755 22.8418 12.7578C22.8418 12.9076 22.8255 13.1094 22.793 13.3633C22.7669 13.6107 22.7539 13.8711 22.7539 14.1445C22.7539 14.3008 22.7604 14.457 22.7734 14.6133C22.793 14.763 22.8223 14.8997 22.8613 15.0234C22.9069 15.1406 22.972 15.2383 23.0566 15.3164C23.1413 15.388 23.252 15.4238 23.3887 15.4238C23.5449 15.4238 23.7012 15.3815 23.8574 15.2969C24.0137 15.2057 24.1667 15.0885 24.3164 14.9453C24.4661 14.7956 24.6094 14.6328 24.7461 14.457C24.8828 14.2747 25.0065 14.0957 25.1172 13.9199C25.2279 13.7376 25.3255 13.5651 25.4102 13.4023C25.4948 13.2331 25.5632 13.0931 25.6152 12.9824C25.6803 12.8327 25.7943 12.7578 25.957 12.7578C26.0677 12.7578 26.1556 12.7969 26.2207 12.875C26.2858 12.9531 26.3184 13.0378 26.3184 13.1289C26.3184 13.181 26.3086 13.2298 26.2891 13.2754C26.263 13.3275 26.2109 13.4349 26.1328 13.5977C26.0612 13.7604 25.9603 13.9492 25.8301 14.1641C25.7064 14.3789 25.5599 14.6035 25.3906 14.8379C25.2214 15.0723 25.0326 15.2904 24.8242 15.4922C24.6224 15.6875 24.401 15.8503 24.1602 15.9805C23.9258 16.1042 23.6784 16.166 23.418 16.166C23.1185 16.166 22.8776 16.1042 22.6953 15.9805C22.513 15.8503 22.3698 15.6875 22.2656 15.4922C22.168 15.2969 22.0996 15.0788 22.0605 14.8379C22.028 14.597 22.0117 14.3626 22.0117 14.1348C22.0117 14.0176 22.015 13.8939 22.0215 13.7637C22.0345 13.627 22.0475 13.4935 22.0605 13.3633C22.0736 13.2331 22.0833 13.1126 22.0898 13.002C22.1029 12.8848 22.1094 12.7871 22.1094 12.709C22.1094 12.5072 22.0801 12.3704 22.0215 12.2988C21.9694 12.2272 21.9076 12.1914 21.8359 12.1914C21.7318 12.1914 21.6113 12.2533 21.4746 12.377C21.3444 12.4941 21.2044 12.6504 21.0547 12.8457C20.9115 13.041 20.765 13.2624 20.6152 13.5098C20.472 13.7507 20.332 13.9915 20.1953 14.2324C20.0586 14.4733 19.9349 14.7044 19.8242 14.9258C19.7135 15.1406 19.6224 15.3197 19.5508 15.4629C19.4141 15.7363 19.2741 15.9186 19.1309 16.0098C18.9941 16.1074 18.8704 16.1562 18.7598 16.1562C18.5579 16.1562 18.4017 16.0781 18.291 15.9219C18.1868 15.7591 18.1348 15.5638 18.1348 15.3359V14.7207C18.1348 13.4902 18.1348 12.3184 18.1348 11.2051C18.1413 10.0853 18.1576 9.04688 18.1836 8.08984C18.2161 7.1263 18.265 6.25716 18.3301 5.48242C18.4017 4.70117 18.5059 4.03711 18.6426 3.49023C18.7793 2.93685 18.9518 2.51042 19.1602 2.21094C19.375 1.91146 19.6419 1.76172 19.9609 1.76172C20.2344 1.76172 20.4655 1.83659 20.6543 1.98633C20.8431 2.13607 20.9961 2.34115 21.1133 2.60156C21.2305 2.85547 21.3151 3.15495 21.3672 3.5C21.4193 3.83854 21.4453 4.19661 21.4453 4.57422C21.4453 5.34245 21.3737 6.09766 21.2305 6.83984C21.0938 7.57552 20.9082 8.29492 20.6738 8.99805C20.4395 9.70117 20.166 10.388 19.8535 11.0586C19.541 11.7227 19.2122 12.3704 18.8672 13.002C18.8672 13.1191 18.8672 13.2591 18.8672 13.4219C18.8672 13.5846 18.8672 13.7474 18.8672 13.9102C18.8672 14.0729 18.8672 14.2259 18.8672 14.3691C18.8672 14.5124 18.8672 14.6263 18.8672 14.7109L18.877 15.1699ZM18.877 11.5664C19.1504 10.9674 19.3978 10.3848 19.6191 9.81836C19.847 9.24544 20.0391 8.67578 20.1953 8.10938C20.3581 7.54297 20.485 6.97005 20.5762 6.39062C20.6673 5.80469 20.7129 5.19596 20.7129 4.56445C20.7129 4.46029 20.7064 4.29427 20.6934 4.06641C20.6868 3.83854 20.6576 3.60742 20.6055 3.37305C20.5599 3.13867 20.485 2.93359 20.3809 2.75781C20.2832 2.58203 20.1432 2.49414 19.9609 2.49414C19.8177 2.49414 19.694 2.5918 19.5898 2.78711C19.4857 2.97591 19.3945 3.23633 19.3164 3.56836C19.2383 3.89388 19.1732 4.27474 19.1211 4.71094C19.069 5.14714 19.0267 5.60938 18.9941 6.09766C18.9616 6.58594 18.9355 7.08724 18.916 7.60156C18.903 8.11589 18.8932 8.61719 18.8867 9.10547C18.8802 9.58724 18.877 10.0397 18.877 10.4629C18.877 10.8861 18.877 11.2539 18.877 11.5664ZM26.7969 14.9258C26.9336 15.1146 27.1094 15.2676 27.3242 15.3848C27.5391 15.4954 27.8027 15.5508 28.1152 15.5508C28.4342 15.5508 28.724 15.4759 28.9844 15.3262C29.2448 15.1699 29.4824 14.9681 29.6973 14.7207C29.9121 14.4733 30.1042 14.1966 30.2734 13.8906C30.4427 13.5846 30.5957 13.2786 30.7324 12.9727C30.765 12.901 30.8105 12.849 30.8691 12.8164C30.9277 12.7773 30.9928 12.7578 31.0645 12.7578C31.1751 12.7578 31.263 12.7969 31.3281 12.875C31.3997 12.9531 31.4355 13.0378 31.4355 13.1289C31.4355 13.1615 31.4323 13.1908 31.4258 13.2168C31.4193 13.2363 31.4095 13.2591 31.3965 13.2852C30.9473 14.2747 30.4557 15.0202 29.9219 15.5215C29.3945 16.0228 28.7956 16.2799 28.125 16.293C27.6953 16.293 27.3242 16.2083 27.0117 16.0391C26.6992 15.8763 26.4421 15.6647 26.2402 15.4043C26.0384 15.1374 25.8887 14.8379 25.791 14.5059C25.6934 14.1738 25.6445 13.8418 25.6445 13.5098C25.6445 13.1777 25.6836 12.8717 25.7617 12.5918C25.8464 12.3118 25.9635 12.0677 26.1133 11.8594C26.2695 11.651 26.4518 11.4883 26.6602 11.3711C26.875 11.2539 27.1094 11.1953 27.3633 11.1953C27.513 11.1953 27.6595 11.2279 27.8027 11.293C27.9525 11.3516 28.0859 11.4395 28.2031 11.5566C28.3203 11.6673 28.4147 11.804 28.4863 11.9668C28.5579 12.1296 28.5938 12.3151 28.5938 12.5234C28.5938 12.7904 28.5482 13.041 28.457 13.2754C28.3659 13.5098 28.2389 13.7279 28.0762 13.9297C27.9199 14.1315 27.7311 14.3171 27.5098 14.4863C27.2884 14.6556 27.0508 14.8021 26.7969 14.9258ZM26.5039 14.291C26.7057 14.2064 26.888 14.099 27.0508 13.9688C27.2201 13.8385 27.3633 13.6953 27.4805 13.5391C27.5977 13.3828 27.6888 13.2201 27.7539 13.0508C27.819 12.875 27.8516 12.6992 27.8516 12.5234C27.8516 12.3281 27.8027 12.1816 27.7051 12.084C27.6074 11.9798 27.4935 11.9277 27.3633 11.9277C27.1875 11.9277 27.0378 11.9766 26.9141 12.0742C26.7904 12.1719 26.6895 12.2988 26.6113 12.4551C26.5332 12.6113 26.4746 12.7871 26.4355 12.9824C26.403 13.1712 26.3867 13.36 26.3867 13.5488C26.3867 13.666 26.3965 13.7897 26.416 13.9199C26.4421 14.0501 26.4714 14.1738 26.5039 14.291ZM34.5312 13.1582C34.8503 14.6621 35.3125 15.4141 35.918 15.4141C36.1523 15.4141 36.377 15.3294 36.5918 15.1602C36.8066 14.9844 37.0052 14.7728 37.1875 14.5254C37.3763 14.2715 37.5423 14.0046 37.6855 13.7246C37.8288 13.4447 37.946 13.2005 38.0371 12.9922C38.1022 12.8359 38.2161 12.7578 38.3789 12.7578C38.4831 12.7578 38.571 12.7969 38.6426 12.875C38.7142 12.9531 38.75 13.0378 38.75 13.1289C38.75 13.181 38.7402 13.2266 38.7207 13.2656C38.6751 13.3763 38.6068 13.526 38.5156 13.7148C38.431 13.8971 38.3236 14.0957 38.1934 14.3105C38.0697 14.5189 37.9297 14.7337 37.7734 14.9551C37.6172 15.1764 37.4447 15.375 37.2559 15.5508C37.0671 15.7266 36.8652 15.873 36.6504 15.9902C36.4421 16.1009 36.2207 16.1562 35.9863 16.1562C35.5501 16.1562 35.1758 16.0065 34.8633 15.707C34.5508 15.401 34.2806 14.8997 34.0527 14.2031C33.7402 14.8672 33.4245 15.349 33.1055 15.6484C32.7865 15.9479 32.4414 16.0977 32.0703 16.0977C31.875 16.0977 31.6862 16.0651 31.5039 16C31.3216 15.9414 31.1621 15.8405 31.0254 15.6973C30.8887 15.554 30.778 15.3717 30.6934 15.1504C30.6087 14.9225 30.5664 14.6458 30.5664 14.3203C30.5664 13.8711 30.6445 13.4577 30.8008 13.0801C30.957 12.7025 31.1589 12.3802 31.4062 12.1133C31.6536 11.8398 31.9271 11.6283 32.2266 11.4785C32.5326 11.3288 32.8353 11.2539 33.1348 11.2539C33.2324 11.2539 33.3171 11.2897 33.3887 11.3613C33.4603 11.4264 33.4961 11.5111 33.4961 11.6152C33.4961 11.7064 33.4668 11.7878 33.4082 11.8594C33.3496 11.931 33.2715 11.9733 33.1738 11.9863C32.9785 12.0124 32.7702 12.0742 32.5488 12.1719C32.3275 12.2695 32.1224 12.4128 31.9336 12.6016C31.7513 12.7839 31.5983 13.0182 31.4746 13.3047C31.3574 13.5911 31.2988 13.9329 31.2988 14.3301C31.2988 14.6556 31.3639 14.9095 31.4941 15.0918C31.6309 15.2741 31.8262 15.3652 32.0801 15.3652C32.1842 15.3652 32.2949 15.3392 32.4121 15.2871C32.5293 15.2285 32.653 15.1178 32.7832 14.9551C32.9199 14.7923 33.0664 14.5612 33.2227 14.2617C33.3854 13.9622 33.5645 13.5684 33.7598 13.0801C33.6491 12.5072 33.5482 11.8464 33.457 11.0977C33.3659 10.349 33.3203 9.51237 33.3203 8.58789C33.3203 8.18424 33.3333 7.76432 33.3594 7.32812C33.3854 6.88542 33.4277 6.45573 33.4863 6.03906C33.5449 5.61589 33.623 5.21549 33.7207 4.83789C33.8184 4.46029 33.9355 4.12826 34.0723 3.8418C34.2155 3.55534 34.3815 3.33073 34.5703 3.16797C34.7591 2.9987 34.974 2.91406 35.2148 2.91406C35.4297 2.91406 35.612 2.97266 35.7617 3.08984C35.9115 3.20703 36.0319 3.36979 36.123 3.57812C36.2207 3.78646 36.2923 4.03711 36.3379 4.33008C36.3835 4.62305 36.4062 4.94531 36.4062 5.29688C36.4062 6.05208 36.3411 6.80729 36.2109 7.5625C36.0807 8.31771 35.918 9.04036 35.7227 9.73047C35.5339 10.4206 35.332 11.0586 35.1172 11.6445C34.9023 12.2305 34.707 12.735 34.5312 13.1582ZM35.6738 5.28711C35.6738 5.12435 35.6673 4.94857 35.6543 4.75977C35.6478 4.57096 35.625 4.39518 35.5859 4.23242C35.5534 4.06315 35.5078 3.92318 35.4492 3.8125C35.3906 3.70182 35.3125 3.64648 35.2148 3.64648C35.0521 3.64648 34.8991 3.78971 34.7559 4.07617C34.6191 4.36263 34.4987 4.74023 34.3945 5.20898C34.2904 5.67122 34.2057 6.19857 34.1406 6.79102C34.082 7.37695 34.0527 7.9694 34.0527 8.56836C34.0527 9.14128 34.0755 9.71419 34.1211 10.2871C34.1667 10.86 34.2188 11.3711 34.2773 11.8203C34.4661 11.319 34.6452 10.8047 34.8145 10.2773C34.9837 9.74349 35.1302 9.19987 35.2539 8.64648C35.3841 8.0931 35.485 7.53646 35.5566 6.97656C35.6348 6.41016 35.6738 5.84701 35.6738 5.28711ZM41.8359 13.1582C42.1549 14.6621 42.6172 15.4141 43.2227 15.4141C43.457 15.4141 43.6816 15.3294 43.8965 15.1602C44.1113 14.9844 44.3099 14.7728 44.4922 14.5254C44.681 14.2715 44.847 14.0046 44.9902 13.7246C45.1335 13.4447 45.2507 13.2005 45.3418 12.9922C45.4069 12.8359 45.5208 12.7578 45.6836 12.7578C45.7878 12.7578 45.8757 12.7969 45.9473 12.875C46.0189 12.9531 46.0547 13.0378 46.0547 13.1289C46.0547 13.181 46.0449 13.2266 46.0254 13.2656C45.9798 13.3763 45.9115 13.526 45.8203 13.7148C45.7357 13.8971 45.6283 14.0957 45.498 14.3105C45.3743 14.5189 45.2344 14.7337 45.0781 14.9551C44.9219 15.1764 44.7493 15.375 44.5605 15.5508C44.3717 15.7266 44.1699 15.873 43.9551 15.9902C43.7467 16.1009 43.5254 16.1562 43.291 16.1562C42.8548 16.1562 42.4805 16.0065 42.168 15.707C41.8555 15.401 41.5853 14.8997 41.3574 14.2031C41.0449 14.8672 40.7292 15.349 40.4102 15.6484C40.0911 15.9479 39.7461 16.0977 39.375 16.0977C39.1797 16.0977 38.9909 16.0651 38.8086 16C38.6263 15.9414 38.4668 15.8405 38.3301 15.6973C38.1934 15.554 38.0827 15.3717 37.998 15.1504C37.9134 14.9225 37.8711 14.6458 37.8711 14.3203C37.8711 13.8711 37.9492 13.4577 38.1055 13.0801C38.2617 12.7025 38.4635 12.3802 38.7109 12.1133C38.9583 11.8398 39.2318 11.6283 39.5312 11.4785C39.8372 11.3288 40.14 11.2539 40.4395 11.2539C40.5371 11.2539 40.6217 11.2897 40.6934 11.3613C40.765 11.4264 40.8008 11.5111 40.8008 11.6152C40.8008 11.7064 40.7715 11.7878 40.7129 11.8594C40.6543 11.931 40.5762 11.9733 40.4785 11.9863C40.2832 12.0124 40.0749 12.0742 39.8535 12.1719C39.6322 12.2695 39.4271 12.4128 39.2383 12.6016C39.056 12.7839 38.903 13.0182 38.7793 13.3047C38.6621 13.5911 38.6035 13.9329 38.6035 14.3301C38.6035 14.6556 38.6686 14.9095 38.7988 15.0918C38.9355 15.2741 39.1309 15.3652 39.3848 15.3652C39.4889 15.3652 39.5996 15.3392 39.7168 15.2871C39.834 15.2285 39.9577 15.1178 40.0879 14.9551C40.2246 14.7923 40.3711 14.5612 40.5273 14.2617C40.6901 13.9622 40.8691 13.5684 41.0645 13.0801C40.9538 12.5072 40.8529 11.8464 40.7617 11.0977C40.6706 10.349 40.625 9.51237 40.625 8.58789C40.625 8.18424 40.638 7.76432 40.6641 7.32812C40.6901 6.88542 40.7324 6.45573 40.791 6.03906C40.8496 5.61589 40.9277 5.21549 41.0254 4.83789C41.123 4.46029 41.2402 4.12826 41.377 3.8418C41.5202 3.55534 41.6862 3.33073 41.875 3.16797C42.0638 2.9987 42.2786 2.91406 42.5195 2.91406C42.7344 2.91406 42.9167 2.97266 43.0664 3.08984C43.2161 3.20703 43.3366 3.36979 43.4277 3.57812C43.5254 3.78646 43.597 4.03711 43.6426 4.33008C43.6882 4.62305 43.7109 4.94531 43.7109 5.29688C43.7109 6.05208 43.6458 6.80729 43.5156 7.5625C43.3854 8.31771 43.2227 9.04036 43.0273 9.73047C42.8385 10.4206 42.6367 11.0586 42.4219 11.6445C42.207 12.2305 42.0117 12.735 41.8359 13.1582ZM42.9785 5.28711C42.9785 5.12435 42.972 4.94857 42.959 4.75977C42.9525 4.57096 42.9297 4.39518 42.8906 4.23242C42.8581 4.06315 42.8125 3.92318 42.7539 3.8125C42.6953 3.70182 42.6172 3.64648 42.5195 3.64648C42.3568 3.64648 42.2038 3.78971 42.0605 4.07617C41.9238 4.36263 41.8034 4.74023 41.6992 5.20898C41.5951 5.67122 41.5104 6.19857 41.4453 6.79102C41.3867 7.37695 41.3574 7.9694 41.3574 8.56836C41.3574 9.14128 41.3802 9.71419 41.4258 10.2871C41.4714 10.86 41.5234 11.3711 41.582 11.8203C41.7708 11.319 41.9499 10.8047 42.1191 10.2773C42.2884 9.74349 42.4349 9.19987 42.5586 8.64648C42.6888 8.0931 42.7897 7.53646 42.8613 6.97656C42.9395 6.41016 42.9785 5.84701 42.9785 5.28711ZM48.9844 16.1367C49.2122 15.9089 49.4434 15.6777 49.6777 15.4434C49.9121 15.2025 50.14 14.9518 50.3613 14.6914C50.5827 14.431 50.7878 14.1608 50.9766 13.8809C51.1719 13.5944 51.3444 13.2917 51.4941 12.9727C51.5267 12.901 51.5723 12.849 51.6309 12.8164C51.6895 12.7773 51.7546 12.7578 51.8262 12.7578C51.9368 12.7578 52.0247 12.7969 52.0898 12.875C52.1615 12.9531 52.1973 13.041 52.1973 13.1387C52.1973 13.1908 52.1875 13.2396 52.168 13.2852C51.9661 13.7083 51.735 14.0957 51.4746 14.4473C51.2142 14.7988 50.9408 15.1341 50.6543 15.4531C50.3678 15.7656 50.0781 16.0684 49.7852 16.3613C49.4922 16.6608 49.2122 16.9603 48.9453 17.2598C48.9193 17.709 48.9193 18.1582 48.9453 18.6074C48.9714 19.0632 48.9844 19.5449 48.9844 20.0527C48.9844 20.4694 48.9714 20.8861 48.9453 21.3027C48.9193 21.7194 48.877 22.1165 48.8184 22.4941C48.7598 22.8783 48.6784 23.2363 48.5742 23.5684C48.4766 23.9004 48.3496 24.1868 48.1934 24.4277C48.0371 24.6751 47.8548 24.8672 47.6465 25.0039C47.4382 25.1471 47.194 25.2188 46.9141 25.2188C46.4518 25.2188 46.097 25.0592 45.8496 24.7402C45.6022 24.4212 45.4785 23.9753 45.4785 23.4023C45.4785 23.0898 45.5111 22.7546 45.5762 22.3965C45.6478 22.0384 45.7454 21.6673 45.8691 21.2832C45.9928 20.9056 46.1393 20.5215 46.3086 20.1309C46.4844 19.7402 46.6732 19.3594 46.875 18.9883C47.0768 18.6172 47.2917 18.2624 47.5195 17.9238C47.7474 17.5918 47.9785 17.2891 48.2129 17.0156C48.2259 16.7031 48.2389 16.3776 48.252 16.0391C48.2715 15.707 48.291 15.3978 48.3105 15.1113C48.1413 15.4108 47.9297 15.6517 47.6758 15.834C47.4284 16.0163 47.1549 16.1074 46.8555 16.1074C46.3607 16.1074 45.9733 15.9414 45.6934 15.6094C45.4134 15.2773 45.2734 14.8216 45.2734 14.2422C45.2734 13.819 45.3125 13.4349 45.3906 13.0898C45.4753 12.7383 45.5632 12.4388 45.6543 12.1914C45.752 11.9375 45.8398 11.7454 45.918 11.6152C45.9961 11.4785 46.0352 11.4134 46.0352 11.4199C46.1068 11.3092 46.2077 11.2539 46.3379 11.2539C46.4486 11.2539 46.5365 11.293 46.6016 11.3711C46.6732 11.4427 46.709 11.5273 46.709 11.625C46.709 11.6966 46.6895 11.7617 46.6504 11.8203C46.6569 11.8138 46.6243 11.8691 46.5527 11.9863C46.4876 12.097 46.4128 12.2598 46.3281 12.4746C46.25 12.6895 46.1751 12.9466 46.1035 13.2461C46.0384 13.5456 46.0059 13.8743 46.0059 14.2324C46.0059 14.5905 46.071 14.8704 46.2012 15.0723C46.3314 15.2741 46.543 15.375 46.8359 15.375C47.207 15.375 47.5423 15.1016 47.8418 14.5547C48.1413 14.0013 48.3952 13.2005 48.6035 12.1523C48.6165 12.0677 48.6556 11.9993 48.7207 11.9473C48.7858 11.8887 48.8639 11.8594 48.9551 11.8594C49.0592 11.8594 49.1471 11.8952 49.2188 11.9668C49.2904 12.0384 49.3262 12.1263 49.3262 12.2305C49.3262 12.25 49.3132 12.3672 49.2871 12.582C49.2611 12.7904 49.2285 13.0703 49.1895 13.4219C49.1569 13.7734 49.1211 14.1836 49.082 14.6523C49.043 15.1146 49.0104 15.6094 48.9844 16.1367ZM48.2031 18.207C47.9102 18.6302 47.64 19.0762 47.3926 19.5449C47.1517 20.0137 46.9434 20.4792 46.7676 20.9414C46.5918 21.4036 46.4551 21.8464 46.3574 22.2695C46.2598 22.6927 46.2109 23.0703 46.2109 23.4023C46.2109 23.7409 46.2663 24.0046 46.377 24.1934C46.4876 24.3887 46.6634 24.4863 46.9043 24.4863C47.1191 24.4863 47.3079 24.3789 47.4707 24.1641C47.64 23.9557 47.7799 23.6562 47.8906 23.2656C48.0078 22.875 48.0957 22.3997 48.1543 21.8398C48.2129 21.2865 48.2422 20.6647 48.2422 19.9746C48.2422 19.6947 48.2357 19.4115 48.2227 19.125C48.2161 18.8385 48.2096 18.5326 48.2031 18.207Z" fill="black"/>
<path d="M58.3105 11.8105C58.3105 11.9603 58.2585 12.0872 58.1543 12.1914C58.0566 12.2891 57.9329 12.3379 57.7832 12.3379C57.6335 12.3379 57.5065 12.2891 57.4023 12.1914C57.3047 12.0872 57.2559 11.9603 57.2559 11.8105C57.2559 11.6673 57.3047 11.5469 57.4023 11.4492C57.5065 11.3451 57.6335 11.293 57.7832 11.293C57.9329 11.293 58.0566 11.3451 58.1543 11.4492C58.2585 11.5469 58.3105 11.6673 58.3105 11.8105ZM58.1152 15.6387C58.1152 16.1074 58.0436 16.5599 57.9004 16.9961C57.7637 17.4388 57.5098 17.8359 57.1387 18.1875C57.054 18.2591 56.9661 18.2949 56.875 18.2949C56.7839 18.2949 56.6992 18.2591 56.6211 18.1875C56.543 18.1224 56.5039 18.0378 56.5039 17.9336C56.5039 17.8294 56.5397 17.7415 56.6113 17.6699C56.8587 17.416 57.0475 17.123 57.1777 16.791C57.3145 16.4655 57.3828 16.0911 57.3828 15.668C57.3828 15.5638 57.4121 15.4759 57.4707 15.4043C57.5358 15.3262 57.6237 15.2871 57.7344 15.2871C57.832 15.2871 57.9167 15.3197 57.9883 15.3848C58.0664 15.4434 58.1087 15.528 58.1152 15.6387ZM65.5078 8.98828C65.5078 9.78255 65.4329 10.528 65.2832 11.2246C65.14 11.9147 64.9512 12.5495 64.7168 13.1289C64.4824 13.7083 64.222 14.2324 63.9355 14.7012C63.6491 15.1699 63.3691 15.5801 63.0957 15.9316C62.7962 16.3158 62.5033 16.651 62.2168 16.9375C61.9303 17.224 61.6732 17.4648 61.4453 17.6602C61.224 17.8555 61.0417 18.002 60.8984 18.0996C60.7552 18.2038 60.6771 18.2591 60.6641 18.2656C60.6055 18.3047 60.5404 18.3242 60.4688 18.3242C60.3776 18.3242 60.293 18.2884 60.2148 18.2168C60.1367 18.1517 60.0977 18.0638 60.0977 17.9531C60.0977 17.8229 60.153 17.7188 60.2637 17.6406C60.2702 17.6341 60.3385 17.582 60.4688 17.4844C60.6055 17.3932 60.778 17.2565 60.9863 17.0742C61.2012 16.8919 61.4421 16.6641 61.709 16.3906C61.9824 16.1172 62.2591 15.7982 62.5391 15.4336C62.819 15.069 63.0924 14.6621 63.3594 14.2129C63.6263 13.7637 63.8639 13.2721 64.0723 12.7383C64.2871 12.1979 64.4564 11.6152 64.5801 10.9902C64.7103 10.3652 64.7754 9.69792 64.7754 8.98828C64.7754 8.04427 64.7005 7.19792 64.5508 6.44922C64.401 5.69401 64.2122 5.02995 63.9844 4.45703C63.7565 3.88411 63.5091 3.39583 63.2422 2.99219C62.9753 2.58854 62.7279 2.25651 62.5 1.99609C62.2721 1.73568 62.0801 1.54688 61.9238 1.42969C61.7741 1.30599 61.696 1.24089 61.6895 1.23438C61.5788 1.14323 61.5234 1.04232 61.5234 0.931641C61.5234 0.820964 61.5592 0.733073 61.6309 0.667969C61.709 0.596354 61.7969 0.560547 61.8945 0.560547C61.9661 0.560547 62.0312 0.580078 62.0898 0.619141C62.1159 0.632161 62.2168 0.707031 62.3926 0.84375C62.5749 0.980469 62.7897 1.19206 63.0371 1.47852C63.291 1.75846 63.5612 2.11654 63.8477 2.55273C64.1406 2.98893 64.4076 3.51628 64.6484 4.13477C64.8958 4.74674 65.1009 5.45638 65.2637 6.26367C65.4264 7.06445 65.5078 7.97266 65.5078 8.98828Z" fill="#365E6A"/>
</svg>
