<svg width="89" height="91" viewBox="0 0 89 91" fill="none" xmlns="http://www.w3.org/2000/svg">
<g clip-path="url(#clip0_502_1166)">
<path fill-rule="evenodd" clip-rule="evenodd" d="M61.7627 72.3219C61.8881 72.0807 62.0084 71.8677 62.1108 71.6473C62.1753 71.5062 62.2748 71.478 62.4151 71.4818C63.256 71.5055 64.0969 71.5315 64.9385 71.5396C65.6532 71.5471 66.3695 71.5337 67.0849 71.5255C67.8909 71.5159 68.6969 71.4736 69.5022 71.4966C70.5747 71.5278 71.6197 71.7378 72.5897 72.215C73.7483 72.7858 74.6248 73.6549 75.2223 74.8001C75.5979 75.5262 75.8323 76.317 75.9132 77.1305C76.0409 78.324 75.957 79.49 75.5785 80.6314C75.1095 82.046 74.2188 83.1289 72.9816 83.9401C72.0294 84.5643 70.9851 84.9332 69.8659 85.1439C68.6814 85.3673 67.4931 85.2953 66.3049 85.2991C65.0016 85.3043 63.6991 85.276 62.3958 85.2612C62.1679 85.259 62.1353 85.2159 62.1954 84.9985L62.2511 84.7981C62.378 84.3988 62.4462 84.381 62.8515 84.3142C63.1387 84.2689 63.4134 84.1646 63.6582 84.0077C63.7948 83.9171 63.8512 83.6811 63.9046 83.4992C63.9507 83.3404 63.9529 83.166 63.9544 82.9983C63.9729 80.4563 63.9922 77.915 64.0026 75.3745C64.0055 74.732 63.9894 74.0894 63.9544 73.4478C63.9291 72.9988 63.6894 72.6915 63.155 72.5854C62.7394 72.503 62.3208 72.4392 61.903 72.3657L61.7627 72.3219ZM73.6941 78.4769C73.6377 77.9707 73.6102 77.4601 73.5197 76.9613C73.303 75.7642 72.779 74.7214 71.8587 73.9043C70.3706 72.5839 68.5789 72.3805 66.7012 72.5379C66.2737 72.5735 66.1817 72.7197 66.175 73.1591C66.1646 73.7825 66.1542 74.406 66.1535 75.0294C66.1505 77.0066 66.1505 78.9838 66.1535 80.961C66.1542 81.5235 66.1602 82.0861 66.1765 82.6472C66.1943 83.2217 66.4028 83.7078 66.9654 83.9305C67.8523 84.2815 68.7853 84.3231 69.716 84.1798C71.2026 83.952 72.2424 83.0859 72.94 81.7878C73.4922 80.7576 73.6481 79.6332 73.6941 78.4769ZM77.3078 85.2092C77.29 84.9012 77.4162 84.6467 77.572 84.4129C77.6143 84.3498 77.7598 84.3528 77.86 84.3327L78.7105 84.1643C79.0111 84.1004 79.1692 83.8985 79.2115 83.6039C79.2397 83.4094 79.2664 83.2128 79.2687 83.0161C79.2888 81.4598 79.3034 79.9034 79.3125 78.347C79.3199 76.7884 79.3139 75.2298 79.3139 73.6712L79.3073 73.3736C79.2768 72.8726 79.0349 72.6128 78.5376 72.5394L77.4592 72.3753C77.3264 72.3575 77.2781 72.2937 77.3264 72.1757C77.4095 71.9746 77.4889 71.766 77.6062 71.5849C77.65 71.5181 77.7977 71.4921 77.8971 71.4944C78.4122 71.5018 78.9273 71.5404 79.4423 71.5396L83.9259 71.5129C84.7898 71.5122 85.624 71.6628 86.3989 72.0762C87.2516 72.5305 87.7289 73.2333 87.8654 74.1907C88.0079 75.1964 87.7029 76.044 86.9681 76.7171C86.6661 76.9947 86.2749 77.1758 85.9246 77.4014L85.8103 77.4727C86.1354 77.5922 86.4449 77.6953 86.7462 77.8185C87.6279 78.18 88.3293 78.7448 88.7004 79.6466C88.9936 80.3583 88.9935 81.1005 88.8199 81.8382C88.5497 82.9931 87.789 83.7612 86.7996 84.3424C85.8712 84.8879 84.8662 85.2055 83.796 85.259C82.8089 85.3087 81.8173 85.2901 80.828 85.3013L80.255 85.3042C79.3015 85.2823 78.3481 85.2586 77.3946 85.233L77.3078 85.2092ZM81.4173 80.6901H81.4269C81.4269 81.1784 81.4203 81.6668 81.4292 82.1552C81.4351 82.4713 81.424 82.7964 81.4923 83.1007C81.5947 83.5557 81.8025 83.9661 82.3131 84.0967C82.9958 84.2761 83.7089 84.3075 84.4046 84.1887C85.2782 84.0366 85.9751 83.5987 86.3573 82.7667C86.6408 82.1485 86.6831 81.4931 86.5859 80.8237C86.4568 79.9419 85.9884 79.3022 85.2099 78.8828C84.6993 78.6075 84.1545 78.439 83.5741 78.4168C82.9239 78.3923 82.273 78.3908 81.6229 78.3707C81.4403 78.3655 81.4151 78.4583 81.4158 78.6082C81.4195 79.3014 81.4173 79.9954 81.4173 80.6901ZM82.8015 77.3688C83.157 77.351 83.5593 77.3458 83.9593 77.3057C84.7252 77.2292 85.2648 76.8441 85.5461 76.1115C85.6893 75.7397 85.6834 75.3567 85.6871 74.97C85.6982 73.9629 85.1104 73.1376 84.1537 72.7962C83.4153 72.5327 82.6538 72.5282 81.8878 72.549C81.5776 72.5572 81.4388 72.693 81.4344 73.0055L81.3884 77.0793C81.3861 77.2411 81.4559 77.3109 81.6132 77.3161L82.8015 77.3688Z" fill="#94795D"/>
<path fill-rule="evenodd" clip-rule="evenodd" d="M4.82476 84.4264L4.77058 85.1271C4.26589 85.1271 3.80054 85.1234 3.33519 85.1286C2.45867 85.1375 1.58214 85.1516 0.704879 85.1642L0.620269 85.1694C0.49484 85.1545 0.266988 85.1545 0.261051 85.1174C0.223941 84.9089 0.235817 84.6899 0.245465 84.4739C0.246207 84.4495 0.331559 84.4183 0.381285 84.4064L1.06336 84.2543C1.48863 84.1437 1.63855 83.9603 1.65859 83.521C1.6816 83.0259 1.70461 82.5302 1.70683 82.0351C1.71351 80.8164 1.70609 79.5993 1.71129 78.3806C1.71203 78.0956 1.61332 77.8833 1.34761 77.7675C1.03188 77.6274 0.713939 77.4923 0.393902 77.3623C0.242496 77.3014 0.0458163 77.268 0.0636288 77.0647C0.0814413 76.8576 0.272184 76.8034 0.451793 76.7626C1.19546 76.5927 1.93988 76.4271 2.68132 76.2461C2.92031 76.1874 3.1489 76.0887 3.43464 75.9893C3.44949 76.1436 3.47695 76.2906 3.47398 76.4375L3.43019 77.1359C3.42945 77.2146 3.47027 77.32 3.5289 77.3638C3.56453 77.3912 3.68402 77.3415 3.74339 77.2955C4.37722 76.8131 5.04816 76.3967 5.81336 76.154C6.99863 75.7777 8.01617 76.1266 8.72867 77.1486C8.97953 77.5085 8.98027 77.5085 9.32836 77.2569C9.92582 76.8227 10.5507 76.4398 11.2499 76.1874C12.7847 75.633 14.2595 76.3366 14.7931 77.8826C14.9875 78.4437 15.0618 79.0233 15.0603 79.6156L15.0462 83.5477C15.0454 83.872 15.153 84.0568 15.4618 84.1578C15.8084 84.2713 16.1676 84.3493 16.558 84.4517L16.4675 85.1278C16.0236 85.1278 15.6154 85.1248 15.2072 85.1286C14.2097 85.1375 13.2122 85.1427 12.2155 85.1657C12.0418 85.1701 11.9965 85.1271 11.9876 84.9645C11.9587 84.4443 11.9542 84.445 12.4441 84.3277L12.6088 84.2854C13.0875 84.1548 13.2471 84.0079 13.2508 83.5225C13.2619 82.1286 13.2909 80.7311 13.2204 79.3402C13.1469 77.8974 12.0017 77.1293 10.6034 77.4989C10.1521 77.6225 9.72711 77.8272 9.34914 78.103C9.21925 78.1958 9.19476 78.3027 9.20515 78.4652C9.24449 79.0797 9.26898 79.695 9.27418 80.3103C9.28308 81.3872 9.26972 82.4641 9.27418 83.5418C9.27566 83.9782 9.42484 84.1452 9.85605 84.2461L10.4966 84.3938L10.6153 84.4205C10.6242 84.6254 10.6324 84.8302 10.6227 85.035C10.6168 85.1634 10.5173 85.1746 10.406 85.1723C9.78332 85.1568 9.15988 85.136 8.53718 85.1375C7.77941 85.1389 7.02238 85.1605 6.26535 85.1738H6.08722C6.08722 84.9564 6.07683 84.7486 6.09464 84.5415C6.09836 84.4918 6.18593 84.422 6.24605 84.4064L6.99269 84.2483C7.30961 84.1704 7.46101 84.0078 7.47882 83.6857C7.56343 82.1939 7.62429 80.7014 7.48402 79.2103C7.44983 78.9159 7.36812 78.6289 7.24207 78.3605C6.85984 77.5159 5.99964 77.1634 5.00734 77.4172C4.53605 77.5375 4.11078 77.7534 3.70851 78.0258C3.62079 78.0798 3.54874 78.1559 3.49952 78.2464C3.4503 78.3368 3.42563 78.4386 3.42796 78.5416C3.42796 80.0297 3.43316 81.5178 3.43761 83.0052L3.44578 83.5789C3.45468 83.9789 3.62464 84.1897 4.02171 84.2758C4.27703 84.3337 4.53531 84.373 4.82476 84.4264Z" fill="#50382B"/>
<path fill-rule="evenodd" clip-rule="evenodd" d="M49.6963 76.141C49.8113 76.7006 49.8091 77.2038 49.3979 77.5853C48.9897 77.9645 48.4731 77.8369 47.9692 77.7522C48.0159 78.018 48.0679 78.2436 48.0931 78.4722C48.2765 80.171 47.5454 81.432 45.9697 82.1527C45.3745 82.4243 44.7429 82.5253 44.0979 82.5772C43.7773 82.6024 43.4968 82.8474 43.4663 83.1108C43.4352 83.378 43.6029 83.6526 43.9384 83.7328C44.3339 83.8271 44.7466 83.8538 45.1526 83.9005C46.0239 84 46.9049 84.0453 47.7658 84.2011C49.0676 84.4356 49.7942 85.5719 49.5649 86.8797C49.3608 88.0434 48.6869 88.8903 47.7473 89.5397C46.1642 90.6366 44.4275 90.9572 42.5779 90.3976C41.5203 90.077 40.7744 89.3816 40.5169 88.2564C40.3877 87.6931 40.525 87.1832 40.9488 86.801C41.4528 86.3483 42.0013 85.9445 42.5289 85.517L42.6997 85.3456L42.5037 85.2083C41.9656 84.9529 41.5352 84.6034 41.3682 83.9963C41.311 83.7907 41.3704 83.6556 41.5448 83.5502C41.8417 83.3713 42.1371 83.1895 42.4302 83.0047C42.5683 82.9186 42.7048 82.8296 42.8332 82.7301C43.0084 82.5965 42.9928 82.4971 42.7835 82.4199C42.2966 82.2403 41.8639 81.9797 41.5285 81.579C40.9681 80.9103 40.8093 80.1139 40.8553 79.273C40.9273 77.9593 41.6405 77.0939 42.7998 76.5373C44.1781 75.876 45.5608 75.8344 46.9657 76.4371C47.4853 76.6597 48.033 76.7072 48.5904 76.6687C49.0068 76.639 49.3704 76.4816 49.6963 76.141ZM44.6175 85.5526C43.5829 85.5437 43.2585 85.6714 42.6514 86.2896C41.9716 86.9828 41.9753 87.944 42.6536 88.6401C43.1687 89.1678 43.8115 89.415 44.5262 89.4892C45.3611 89.5753 46.1835 89.5404 46.942 89.1226C47.751 88.675 48.1532 87.8438 47.9714 87.0066C47.8207 86.3156 47.3116 85.9994 46.6919 85.8176C45.9868 85.6113 45.258 85.5719 44.6175 85.5526ZM42.5854 78.9412C42.6232 79.2285 42.6388 79.5194 42.7026 79.8007C42.8681 80.5295 43.185 81.17 43.9102 81.4944C44.7614 81.8766 45.8488 81.7126 46.2213 80.5176C46.4759 79.7224 46.4462 78.8635 46.1375 78.0877C46.0066 77.7331 45.7711 77.4266 45.4621 77.209C44.7229 76.6931 43.3891 76.6249 42.8459 77.7649C42.6692 78.1352 42.6002 78.5293 42.5854 78.9412Z" fill="#4F382B"/>
<path fill-rule="evenodd" clip-rule="evenodd" d="M32.1425 75.9582C32.17 76.0852 32.2249 76.2291 32.2264 76.3739C32.2286 76.6492 32.1989 76.9246 32.1833 77.1999V77.4389L32.4164 77.2608C33.0547 76.7353 33.7404 76.2878 34.539 76.0466C35.9804 75.6124 37.4202 76.4013 37.89 77.8694C38.0681 78.4275 38.1386 79.0012 38.1453 79.5846C38.1602 80.8804 38.1691 82.1763 38.1824 83.4722C38.1869 83.9375 38.2403 84.0206 38.6804 84.155C38.9309 84.2297 39.1863 84.2865 39.4449 84.3249C39.5866 84.3472 39.6475 84.4029 39.6401 84.5416L39.6416 84.6693C39.6364 85.2059 39.5993 85.2304 39.079 85.2289C37.8336 85.2267 36.5889 85.2341 35.3436 85.2445C34.9725 85.2475 34.9717 85.2586 34.9346 84.892L34.9272 84.6812C34.9502 84.365 34.9576 84.368 35.2686 84.322C35.4779 84.2908 35.6857 84.2425 35.8898 84.1891C36.0998 84.1349 36.2008 83.9798 36.229 83.772C36.2431 83.6666 36.2616 83.5612 36.2609 83.4558C36.2431 82.0397 36.2661 80.6222 36.1889 79.2083C36.1266 78.0646 35.2537 77.3832 34.1056 77.4612C33.5521 77.4995 33.0201 77.6904 32.5685 78.0126C32.262 78.2271 32.2004 78.5366 32.2019 78.8698C32.2078 80.1939 32.2204 81.518 32.2345 82.8428C32.2375 83.133 32.2457 83.4232 32.2731 83.7111C32.3021 84.0258 32.4127 84.1527 32.7214 84.221C33.0168 84.2863 33.3181 84.3242 33.6336 84.3769L33.6603 84.6203C33.6707 85.1881 33.6113 85.2304 33.0598 85.2282C31.7721 85.223 30.4845 85.2311 29.1975 85.2452C28.9949 85.2482 28.9088 85.1844 28.914 84.987L28.911 84.9023C28.8776 84.391 28.8925 84.3717 29.3764 84.2886L29.605 84.2425C30.1289 84.1245 30.2633 83.985 30.2707 83.4529C30.2952 81.7673 30.3041 80.0826 30.3212 78.3971C30.3234 78.1551 30.2321 77.9673 30.0065 77.8672C29.6898 77.7284 29.3714 77.5939 29.0513 77.4634C28.8747 77.3907 28.6728 77.3447 28.6661 77.1005C28.6616 76.9283 28.8457 76.7761 29.0973 76.7249C29.6027 76.6225 30.1126 76.5372 30.6121 76.4117C31.1094 76.2878 31.5977 76.1215 32.1425 75.9582Z" fill="#4F372B"/>
<path fill-rule="evenodd" clip-rule="evenodd" d="M59.9855 80.3604C59.9618 81.9346 59.5528 83.2074 58.4395 84.1626C57.0294 85.3746 54.8295 85.7865 53.0312 84.8803C52.2638 84.4936 51.6997 83.9006 51.3323 83.131C50.769 81.9472 50.628 80.7026 50.9219 79.4275C51.2128 78.1665 51.9766 77.2529 53.1195 76.6613C54.2952 76.0535 55.5331 75.816 56.8386 76.1351C58.49 76.5381 59.6768 77.8845 59.9128 79.5989C59.9551 79.8995 59.9714 80.2038 59.9855 80.3604ZM58.0729 81.2132L58.0091 81.2058C58.0091 81.0573 58.0172 80.9089 58.0076 80.7604C57.9534 79.8357 57.7456 78.9547 57.2097 78.1806C56.7013 77.4473 56.0089 77.0146 55.1078 76.9515C54.0992 76.8803 53.2516 77.4444 52.954 78.4745C52.5072 80.0212 52.6586 81.5286 53.4439 82.9454C53.786 83.5629 54.2929 84.0186 54.972 84.2584C56.3028 84.7267 57.4828 84.1203 57.8294 82.7577C57.9571 82.2545 57.9942 81.7283 58.0729 81.2132Z" fill="#4F382B"/>
<path fill-rule="evenodd" clip-rule="evenodd" d="M27.2953 80.4819C27.2678 81.6115 27.0014 82.6558 26.3037 83.5635C25.5564 84.5358 24.5292 85.0553 23.361 85.2742C21.9798 85.5325 20.6824 85.298 19.5728 84.371C19.0459 83.9301 18.6859 83.3653 18.4484 82.7226C18.0588 81.6687 17.9616 80.5888 18.2013 79.4881C18.4573 78.3103 19.1223 77.41 20.1532 76.8059C21.3452 76.109 22.6314 75.798 24.0052 76.1112C25.7716 76.5149 26.7914 77.6661 27.1684 79.4087C27.2441 79.7605 27.2545 80.1242 27.2953 80.4819ZM25.3612 81.2271L25.31 81.2197V81.0074C25.281 79.9713 25.0784 78.9842 24.4602 78.1233C24.0022 77.4842 23.3892 77.0835 22.6032 76.9714C21.3222 76.7888 20.485 77.5488 20.2074 78.5812C19.8452 79.9297 19.9588 81.262 20.5191 82.5408C20.8687 83.3379 21.4209 83.9591 22.2692 84.2604C23.5918 84.7302 24.7897 84.1083 25.1244 82.7508C25.2476 82.2543 25.2847 81.7362 25.3612 81.2271Z" fill="#4F372B"/>
<path fill-rule="evenodd" clip-rule="evenodd" d="M58.1279 22.8955C59.0386 25.528 59.6932 28.2155 59.9092 31.0002C60.1763 34.4558 60.0546 37.8877 59.3258 41.2862L59.2323 41.5578C59.0037 41.5586 58.7706 41.5296 58.5472 41.5645C56.6599 41.8614 54.7747 42.1686 52.8888 42.4744C50.9391 42.7906 48.9879 43.0941 47.0419 43.4311C46.3524 43.5498 45.4988 43.4081 45.2205 44.3611L45.0869 44.4063L45.1812 38.7078L45.0854 24.958L45.9939 24.8022C47.479 24.5595 48.9641 24.3123 50.4515 24.0756C52.2253 23.7943 54.0006 23.5197 55.7759 23.2451C56.5597 23.1248 57.3442 23.0128 58.1279 22.8955Z" fill="#439934"/>
<path fill-rule="evenodd" clip-rule="evenodd" d="M43.2125 61.0198C42.2543 60.1959 41.2628 59.4085 40.3447 58.5416C35.4032 53.8807 31.788 48.3937 30.0075 41.7786C29.5169 39.9587 29.1903 38.1084 29.0849 36.2277C29.0107 34.9111 28.9046 33.5833 28.9981 32.2734C29.2453 28.7903 29.7492 25.3406 30.7704 21.9852L30.8269 21.9072C30.9263 22.0393 31.0688 22.1566 31.1193 22.3058C32.1168 25.2419 33.1061 28.1809 34.091 31.1222C37.1852 40.3632 40.2756 49.6064 43.375 58.8459C43.4359 59.0262 43.5925 59.1739 43.7053 59.3365L43.2125 61.0198Z" fill="#45A538"/>
<path fill-rule="evenodd" clip-rule="evenodd" d="M58.1278 22.8955C57.3433 23.0121 56.5589 23.1249 55.7758 23.2451C54.0005 23.5197 52.2252 23.7943 50.4514 24.0756C48.9648 24.3116 47.4797 24.5588 45.9938 24.8022L45.0854 24.9581L45.078 24.3658C45.0475 23.8789 44.9971 23.3921 44.9904 22.9052L44.8887 13.5878C44.8649 11.644 44.8293 9.7002 44.79 7.75715C44.77 6.54947 44.7351 5.34209 44.6853 4.13527C44.6556 3.48734 44.551 2.84238 44.5094 2.19445C44.4849 1.82188 44.5176 1.44633 44.5258 1.07227C44.9889 1.96957 45.4424 2.87355 45.9181 3.76418C46.6699 5.17211 47.8686 6.20969 48.9485 7.34152C53.2131 11.8177 56.2405 17.0189 58.1278 22.8955Z" fill="#46A037"/>
<path fill-rule="evenodd" clip-rule="evenodd" d="M45.0879 44.4069L45.2215 44.3617C45.4998 43.4087 46.3533 43.5505 47.0428 43.4317C48.9888 43.0947 50.94 42.7912 52.8898 42.475C54.7757 42.17 56.6608 41.8627 58.5482 41.5651C58.7716 41.5302 59.0046 41.5592 59.2332 41.5584C58.8807 42.8172 58.6031 44.1034 58.1556 45.3272C57.6472 46.7151 57.0327 48.0704 56.3803 49.3989C55.403 51.38 54.1939 53.2381 52.7784 54.9341C51.6904 56.2419 50.4777 57.4524 49.2627 58.6465C48.5903 59.3063 47.7991 59.8444 47.0614 60.4382L46.8699 60.3076L46.1819 59.7197L45.4701 58.1582C44.9838 56.3372 44.7184 54.4643 44.6797 52.5799L44.6931 52.2622L44.7903 50.8862C44.8222 50.4164 44.8652 49.9474 44.8853 49.4776C44.9565 47.7883 45.0204 46.0976 45.0879 44.4069Z" fill="#409433"/>
<path fill-rule="evenodd" clip-rule="evenodd" d="M45.0878 44.4072C45.021 46.0979 44.9572 47.7893 44.8852 49.48C44.8651 49.9506 44.8228 50.4196 44.7902 50.8887L44.3567 51.0527C43.3934 48.2168 42.4293 45.4106 41.4867 42.5977C39.9274 37.9435 38.3873 33.2825 36.8302 28.6268C35.5728 24.8694 34.3067 21.1149 33.0317 17.3634C32.9716 17.1882 32.8009 17.0502 32.6821 16.895L35.4579 11.791C35.5537 11.9565 35.6791 12.1116 35.7392 12.2898C37.0232 16.0898 38.3049 19.8905 39.5756 23.695C41.2292 28.6454 42.8716 33.598 44.5237 38.5491C44.5898 38.7465 44.6981 38.9291 44.802 39.151L45.182 38.7087L45.0878 44.4072Z" fill="#4FAA41"/>
<path fill-rule="evenodd" clip-rule="evenodd" d="M32.6816 16.8945C32.8011 17.0496 32.9718 17.1877 33.0312 17.3629C34.3063 21.1143 35.5725 24.8688 36.8297 28.6263C38.3868 33.282 39.9269 37.943 41.4862 42.5972C42.4288 45.4101 43.3929 48.2156 44.3562 51.0522L44.7897 50.8882L44.6925 52.2642L44.6041 52.5811C44.4535 54.087 44.3266 55.5959 44.1425 57.0988C44.0505 57.8521 43.8538 58.5914 43.7046 59.3365C43.5925 59.174 43.4352 59.0263 43.3743 58.8459C40.2742 49.6064 37.1845 40.3632 34.0903 31.1223C33.1059 28.1814 32.1153 25.2426 31.1186 22.3058C31.0681 22.1566 30.9256 22.0394 30.8262 21.9073L32.6816 16.8945Z" fill="#4AA73C"/>
<path fill-rule="evenodd" clip-rule="evenodd" d="M45.1812 38.7085L44.8012 39.1509C44.6973 38.9289 44.5889 38.7464 44.5228 38.5489C42.8707 33.5978 41.2283 28.6452 39.5747 23.6948C38.3026 19.8908 37.0238 16.0891 35.7383 12.2896C35.6782 12.1115 35.5528 11.9564 35.457 11.7909L38.8896 7.27539C38.998 7.41938 39.1524 7.54777 39.208 7.71031C40.161 10.5009 41.1051 13.2938 42.0447 16.0889C42.922 18.6999 43.7859 21.3139 44.6735 23.9204C44.7329 24.0948 44.94 24.218 45.078 24.3665L45.0854 24.9588L45.1812 38.7085Z" fill="#57AE47"/>
<path fill-rule="evenodd" clip-rule="evenodd" d="M45.078 24.3661C44.9392 24.2184 44.7329 24.0952 44.6735 23.92C43.7866 21.3134 42.922 18.6995 42.0447 16.0884C41.1058 13.2933 40.1603 10.5005 39.208 7.70988C39.1524 7.54734 38.998 7.41895 38.8896 7.27496C40.0059 6.18172 41.0873 5.04914 42.2488 4.00637C43.2812 3.08012 44.1109 2.08707 44.1495 0.622734L44.2312 0.331055L44.5251 1.07176C44.5177 1.44582 44.4843 1.82137 44.5087 2.19395C44.5511 2.84188 44.6557 3.48684 44.6846 4.13477C44.7388 5.34082 44.7648 6.5491 44.7893 7.75664C44.8286 9.69969 44.8643 11.6435 44.888 13.5873L44.9897 22.9047C44.9971 23.3923 45.0483 23.8792 45.078 24.3661Z" fill="#60B24F"/>
<path fill-rule="evenodd" clip-rule="evenodd" d="M43.705 59.3355C43.8542 58.5904 44.0508 57.8512 44.1429 57.0979C44.3269 55.5957 44.4538 54.0861 44.6045 52.5802L44.6424 52.5742L44.6795 52.5809C44.7182 54.4653 44.9836 56.3382 45.4699 58.1592C45.3697 58.2913 45.2294 58.4078 45.176 58.5563C44.7641 59.7185 44.3752 60.8904 43.961 62.052C43.9046 62.2108 43.7458 62.3347 43.6352 62.4735L43.2114 61.0188L43.705 59.3355Z" fill="#A9AA88"/>
<path fill-rule="evenodd" clip-rule="evenodd" d="M43.6353 62.4745C43.7458 62.335 43.9047 62.2118 43.9611 62.0529C44.3752 60.8914 44.7641 59.7195 45.176 58.5572C45.2287 58.4088 45.3697 58.2923 45.4699 58.1602L46.1817 59.7217C46.0414 59.9206 45.847 60.101 45.769 60.3229L44.4064 64.3248C44.35 64.4858 44.1592 64.5986 44.0301 64.7345L43.6353 62.4745Z" fill="#B6B598"/>
<path fill-rule="evenodd" clip-rule="evenodd" d="M44.0303 64.7334C44.1587 64.5976 44.3502 64.4848 44.4066 64.3237L45.7692 60.3219C45.8464 60.1 46.0416 59.9196 46.1819 59.7207L46.8706 60.3078C46.5381 60.6366 46.3533 61.0166 46.4647 61.4968L46.2553 62.1818C46.1603 62.2991 46.0223 62.4015 45.9755 62.5358C45.4998 63.8985 45.0463 65.2686 44.5669 66.6305C44.506 66.8027 44.3375 66.9385 44.2195 67.0914L44.0303 64.7334Z" fill="#C2C1A7"/>
<path fill-rule="evenodd" clip-rule="evenodd" d="M44.2189 67.0912C44.3377 66.9383 44.5062 66.8025 44.5663 66.6303C45.0457 65.2684 45.5 63.8983 45.975 62.5357C46.0217 62.4013 46.1598 62.2996 46.2548 62.1816L45.966 65.3255C45.8889 65.4146 45.7775 65.4925 45.7404 65.5957L44.78 68.3477C44.7125 68.5355 44.5834 68.7032 44.4824 68.8791C44.3926 68.7619 44.2323 68.6483 44.2249 68.5266C44.1967 68.0501 44.2167 67.5699 44.2189 67.0912Z" fill="#CECDB7"/>
<path fill-rule="evenodd" clip-rule="evenodd" d="M44.4829 68.8798C44.5838 68.7039 44.713 68.5361 44.7805 68.3484L45.7409 65.5963C45.778 65.4924 45.8901 65.4152 45.9665 65.3262L45.974 67.3895L45.283 69.1611L44.4829 68.8798Z" fill="#DBDAC7"/>
<path fill-rule="evenodd" clip-rule="evenodd" d="M45.2832 69.1613L45.9742 67.3896L46.1167 69.4856L45.2832 69.1613Z" fill="#EBE9DC"/>
<path fill-rule="evenodd" clip-rule="evenodd" d="M46.4638 61.4976C46.3532 61.0181 46.5373 60.6381 46.8698 60.3086L47.0613 60.4392L46.4638 61.4976Z" fill="#CECDB7"/>
<path fill-rule="evenodd" clip-rule="evenodd" d="M44.6795 52.5823L44.6423 52.5756L44.6045 52.5816L44.6928 52.2646L44.6795 52.5823Z" fill="#4FAA41"/>
</g>
<defs>
<clipPath id="clip0_502_1166">
<rect width="89" height="91" fill="white"/>
</clipPath>
</defs>
</svg>
