<svg width="89" height="56" viewBox="0 0 89 56" fill="none" xmlns="http://www.w3.org/2000/svg">
<path d="M75.0141 37.8144C75.3902 37.659 75.7028 37.4351 75.9206 37.1653C76.1385 36.8954 76.2539 36.589 76.2553 36.2769L76.2998 25.9785C76.3011 25.6663 76.4165 25.3599 76.6343 25.09C76.8522 24.8201 77.1648 24.5961 77.5409 24.4407L85.2964 21.234C85.6723 21.0786 86.0983 20.997 86.5318 20.9976C86.9653 20.9981 87.3909 21.0806 87.7661 21.2369C88.1413 21.3932 88.4528 21.6177 88.6693 21.888C88.8859 22.1583 88.9999 22.4648 89 22.7768V41.4998C89 41.8129 88.8852 42.1204 88.6673 42.3913C88.4494 42.6623 88.136 42.887 87.7589 43.0429L58.4897 55.1441C58.1158 55.2986 57.6922 55.3801 57.261 55.3804C56.8299 55.3807 56.4061 55.2999 56.0318 55.1459L33.0621 45.689C32.6837 45.5334 32.3691 45.3087 32.1502 45.0374C31.9313 44.7662 31.816 44.4581 31.8158 44.1445V34.7036C31.8158 34.6931 31.8331 34.6861 31.8481 34.6911C31.8603 34.6966 31.8776 34.6911 31.8776 34.6786V34.6681C31.8776 34.6611 31.8825 34.6538 31.8926 34.6503L50.8107 26.8273C50.828 26.82 50.8204 26.8005 50.8006 26.8005C50.7953 26.8005 50.7903 26.799 50.7866 26.7963C50.7828 26.7937 50.7808 26.79 50.7808 26.7863L50.818 17.5306C50.8197 17.2176 50.7068 16.9098 50.4905 16.6383C50.2742 16.3667 49.9623 16.141 49.5862 15.984C49.21 15.827 48.783 15.7441 48.3481 15.7438C47.9133 15.7435 47.4861 15.8258 47.1095 15.9823L33.0496 21.8143C32.6744 21.9699 32.2489 22.0517 31.8159 22.0517C31.3829 22.0517 30.9575 21.9699 30.5823 21.8143L16.4779 15.9685C16.1021 15.8128 15.676 15.7309 15.2424 15.7311C14.8088 15.7313 14.3829 15.8136 14.0074 15.9697C13.632 16.1258 13.3201 16.3503 13.1033 16.6206C12.8864 16.8909 12.7721 17.1975 12.7719 17.5096V34.2376C12.7722 34.5494 12.6587 34.8558 12.4428 35.1261C12.2268 35.3964 11.916 35.6211 11.5415 35.7777C11.167 35.9343 10.7418 36.0173 10.3087 36.0185C9.87556 36.0196 9.4496 35.9388 9.07348 35.7842L1.246 32.5625C0.866973 32.4066 0.552024 32.1813 0.333173 31.9095C0.114321 31.6376 -0.000631023 31.3289 2.60536e-06 31.0147L0.0695339 1.77574C0.0706428 1.46414 0.185404 1.1582 0.402336 0.888549C0.619269 0.618893 0.930767 0.394967 1.30567 0.239172C1.68058 0.0833765 2.10574 0.00117361 2.53864 0.000786267C2.97153 0.000398923 3.39698 0.0818408 3.77242 0.236965L30.5847 11.3214C30.9594 11.4763 31.3839 11.5578 31.8159 11.5578C32.248 11.5578 32.6725 11.4763 33.0472 11.3214L59.8515 0.236464C60.2275 0.0809744 60.6538 -0.000574743 61.0874 3.04908e-06C61.5211 0.000580841 61.9469 0.0832652 62.3222 0.239756C62.6974 0.396247 63.0089 0.621038 63.2253 0.891563C63.4417 1.16209 63.5554 1.46883 63.555 1.78099V31.0267C63.5553 31.3396 63.4409 31.6469 63.2235 31.9178C63.0061 32.1887 62.6933 32.4136 62.3167 32.5697L48.279 38.389C47.9019 38.5454 47.5889 38.7708 47.3716 39.0422C47.1543 39.3136 47.0403 39.6215 47.0413 39.9348C47.0423 40.2481 47.1582 40.5556 47.3772 40.8263C47.5963 41.0971 47.9107 41.3214 48.2888 41.4766L56.0321 44.6497C56.4063 44.803 56.8296 44.8833 57.2602 44.8826C57.6908 44.882 58.1136 44.8004 58.4869 44.646L75.0145 37.8142L75.0141 37.8144ZM76.6384 11.5797C76.6387 11.8944 76.755 12.2035 76.9754 12.4753C77.1957 12.7471 77.5123 12.972 77.8929 13.1271C78.2734 13.2821 78.7042 13.3617 79.1414 13.3578C79.5786 13.3539 80.0066 13.2665 80.3816 13.1047L87.7985 9.90154C88.1646 9.74362 88.4677 9.52017 88.6783 9.25293C88.8888 8.98568 88.9997 8.68375 89 8.37653V1.84881C88.9993 1.53423 88.8827 1.22541 88.6621 0.953817C88.4416 0.682229 88.1249 0.45758 87.7445 0.30276C87.364 0.147941 86.9334 0.0684852 86.4964 0.072489C86.0594 0.0764928 85.6316 0.163813 85.2568 0.325553L77.8402 3.52873C77.474 3.68663 77.1708 3.91011 76.9602 4.1774C76.7496 4.44469 76.6387 4.74669 76.6384 5.05399V11.5815V11.5797Z" fill="#007FFF"/>
</svg>
