<svg width="128" height="78" viewBox="0 0 128 78" fill="none" xmlns="http://www.w3.org/2000/svg">
<g clip-path="url(#clip0_502_1189)">
<path d="M30.2 20.9004H54.3V22.8004H32.4V37.2004H53V39.1004H32.4V54.9004H54.6V56.8004H30.2V20.9004ZM56.5 20.9004H59.1L70.5 36.7004L82 20.9004L97.8 0.900391L71.8 38.4004L85.2 56.8004H82.5L70.4 40.0004L58.2 56.8004H55.6L69.1 38.4004L56.5 20.9004ZM86.2 22.8004V20.9004H113.7V22.8004H101V56.8004H98.8V22.8004H86.2ZM0 20.9004H2.7L40.9 77.7004L25.1 56.8004L2.3 23.6004L2.2 56.8004H0V20.9004ZM113.5 54.3004C114 54.3004 114.3 54.0004 114.3 53.5004C114.3 53.0004 114 52.7004 113.5 52.7004C113 52.7004 112.7 53.0004 112.7 53.5004C112.7 54.0004 113.1 54.3004 113.5 54.3004ZM115.7 52.2004C115.7 53.5004 116.7 54.4004 118.1 54.4004C119.6 54.4004 120.5 53.5004 120.5 51.9004V46.4004H119.3V51.9004C119.3 52.8004 118.9 53.2004 118.1 53.2004C117.4 53.2004 116.9 52.8004 116.9 52.1004H115.7V52.2004ZM122 52.1004C122.1 53.5004 123.2 54.4004 125 54.4004C126.8 54.4004 128 53.5004 128 52.0004C128 50.8004 127.3 50.2004 125.8 49.8004L124.9 49.6004C123.9 49.4004 123.5 49.0004 123.5 48.5004C123.5 47.8004 124.1 47.3004 125.1 47.3004C126 47.3004 126.6 47.7004 126.7 48.5004H127.9C127.8 47.2004 126.7 46.3004 125.1 46.3004C123.4 46.3004 122.3 47.2004 122.3 48.6004C122.3 49.7004 122.9 50.4004 124.3 50.7004L125.3 50.9004C126.3 51.1004 126.8 51.5004 126.8 52.1004C126.8 52.8004 126.1 53.3004 125.1 53.3004C124.1 53.3004 123.3 52.8004 123.2 52.1004H122Z" fill="black"/>
</g>
<defs>
<clipPath id="clip0_502_1189">
<rect width="128" height="78" fill="white"/>
</clipPath>
</defs>
</svg>
