<svg width="120" height="34" viewBox="0 0 120 34" fill="none" xmlns="http://www.w3.org/2000/svg">
<g clip-path="url(#clip0_502_1191)">
<path d="M110.325 33.749C110.035 33.749 109.747 33.673 109.493 33.525L106.843 31.957C106.447 31.736 106.64 31.657 106.771 31.612C107.299 31.428 107.406 31.385 107.969 31.067C108.028 31.034 108.105 31.046 108.166 31.082L110.201 32.291C110.239 32.3112 110.281 32.3218 110.324 32.3218C110.367 32.3218 110.409 32.3112 110.447 32.291L118.384 27.71C118.422 27.688 118.452 27.6565 118.474 27.6188C118.495 27.5811 118.506 27.5384 118.506 27.495V18.335C118.506 18.291 118.495 18.2478 118.473 18.2094C118.452 18.171 118.421 18.1389 118.383 18.116L110.449 13.539C110.412 13.5184 110.369 13.5075 110.327 13.5075C110.284 13.5075 110.242 13.5184 110.204 13.539L102.271 18.117C102.234 18.1398 102.202 18.1717 102.18 18.2099C102.159 18.248 102.147 18.2911 102.146 18.335V27.495C102.146 27.583 102.195 27.666 102.271 27.707L104.445 28.964C105.625 29.553 106.348 28.859 106.348 28.161V19.116C106.348 18.989 106.451 18.888 106.578 18.888H107.585C107.71 18.888 107.814 18.989 107.814 19.116V28.161C107.814 29.735 106.957 30.638 105.464 30.638C105.005 30.638 104.644 30.638 103.636 30.142L101.555 28.944C101.302 28.7965 101.092 28.5851 100.946 28.331C100.8 28.077 100.723 27.7891 100.723 27.496V18.336C100.723 17.741 101.04 17.186 101.555 16.89L109.492 12.303C109.748 12.1638 110.034 12.0908 110.326 12.0908C110.617 12.0908 110.903 12.1638 111.159 12.303L119.096 16.89C119.61 17.187 119.929 17.742 119.929 18.336V27.496C119.929 27.7891 119.852 28.0769 119.705 28.3309C119.559 28.5849 119.349 28.7963 119.096 28.944L111.159 33.526C110.906 33.673 110.618 33.75 110.325 33.749ZM112.778 27.438C109.303 27.438 108.576 25.843 108.576 24.506C108.576 24.4452 108.601 24.387 108.644 24.344C108.687 24.3011 108.745 24.277 108.806 24.277H109.832C109.887 24.2768 109.94 24.2963 109.982 24.3319C110.024 24.3674 110.052 24.4168 110.06 24.471C110.214 25.516 110.677 26.043 112.778 26.043C114.449 26.043 115.161 25.665 115.161 24.777C115.161 24.265 114.959 23.886 112.361 23.631C110.189 23.416 108.846 22.937 108.846 21.198C108.846 19.597 110.196 18.641 112.458 18.641C115.001 18.641 116.259 19.524 116.418 21.418C116.421 21.4499 116.417 21.4819 116.406 21.5122C116.396 21.5425 116.38 21.5703 116.358 21.594C116.336 21.6168 116.31 21.635 116.282 21.6475C116.253 21.66 116.222 21.6667 116.19 21.667H115.159C115.107 21.6671 115.057 21.6494 115.016 21.6168C114.976 21.5843 114.947 21.5388 114.936 21.488C114.688 20.388 114.088 20.037 112.457 20.037C110.632 20.037 110.42 20.674 110.42 21.149C110.42 21.726 110.67 21.894 113.135 22.22C115.574 22.543 116.733 22.999 116.733 24.714C116.734 26.447 115.292 27.438 112.778 27.438Z" fill="#83CD29"/>
<path d="M93.9818 21.4301C94.2948 21.2471 94.4878 20.9131 94.4878 20.5501V18.1961C94.4878 17.8341 94.2958 17.5001 93.9818 17.3171L85.6178 12.4611C85.4631 12.3711 85.2875 12.3236 85.1086 12.3232C84.9297 12.3229 84.7538 12.3697 84.5988 12.4591L76.1828 17.3181C76.0285 17.4074 75.9003 17.5357 75.8112 17.6902C75.722 17.8446 75.675 18.0197 75.6748 18.1981V27.9141C75.6748 28.2791 75.8708 28.6171 76.1888 28.7981L84.5518 33.5631C84.8598 33.7401 85.2378 33.7411 85.5488 33.5691L90.6068 30.7571C90.6855 30.7134 90.7513 30.6495 90.7972 30.5721C90.8432 30.4946 90.8677 30.4064 90.8683 30.3163C90.8689 30.2263 90.8456 30.1377 90.8007 30.0596C90.7558 29.9816 90.6909 29.9168 90.6128 29.8721L82.1448 25.0121C82.0671 24.9678 82.0025 24.9038 81.9576 24.8265C81.9126 24.7493 81.8889 24.6615 81.8888 24.5721V21.5261C81.8888 21.3441 81.9858 21.1771 82.1428 21.0871L84.7798 19.5671C84.8568 19.5224 84.9443 19.4988 85.0333 19.4988C85.1223 19.4988 85.2098 19.5224 85.2868 19.5671L87.9238 21.0871C88.0011 21.1314 88.0654 21.1953 88.1102 21.2724C88.155 21.3494 88.1786 21.4369 88.1788 21.5261V23.9221C88.1783 24.0117 88.2015 24.0998 88.2461 24.1775C88.2907 24.2552 88.3551 24.3197 88.4328 24.3644C88.5104 24.4091 88.5985 24.4324 88.6881 24.432C88.7777 24.4316 88.8656 24.4075 88.9428 24.3621L93.9818 21.4301Z" fill="#404137"/>
<path d="M84.984 20.9736C85.0138 20.957 85.0473 20.9482 85.0815 20.9482C85.1156 20.9482 85.1492 20.957 85.179 20.9736L86.794 21.9066C86.854 21.9416 86.891 22.0066 86.891 22.0756V23.9406C86.891 24.0106 86.854 24.0746 86.794 24.1096L85.179 25.0416C85.1494 25.0588 85.1157 25.0679 85.0815 25.0679C85.0472 25.0679 85.0136 25.0588 84.984 25.0416L83.37 24.1096C83.3401 24.0926 83.3154 24.068 83.2981 24.0384C83.2809 24.0087 83.2719 23.9749 83.272 23.9406V22.0756C83.272 22.0066 83.309 21.9416 83.37 21.9066L84.984 20.9736Z" fill="#83CD29"/>
<path d="M63.0829 24.8538C63.0829 24.9438 63.0349 25.0278 62.9559 25.0738L60.0659 26.7398C60.0274 26.7624 59.9835 26.7743 59.9389 26.7743C59.8943 26.7743 59.8504 26.7624 59.8119 26.7398L56.9219 25.0738C56.8834 25.0514 56.8513 25.0193 56.8291 24.9807C56.8068 24.9421 56.795 24.8983 56.7949 24.8538V21.5158C56.7949 21.4258 56.8439 21.3408 56.9219 21.2948L59.8119 19.6268C59.8504 19.6037 59.8945 19.5915 59.9394 19.5915C59.9843 19.5915 60.0284 19.6037 60.0669 19.6268L62.9579 21.2948C62.9962 21.3176 63.028 21.3499 63.05 21.3887C63.0721 21.4274 63.0838 21.4712 63.0839 21.5158L63.0829 24.8538ZM63.8639 0.137768C63.7864 0.0954266 63.6993 0.0738898 63.611 0.0752565C63.5227 0.0766233 63.4362 0.100846 63.3601 0.145565C63.284 0.190285 63.2207 0.253974 63.1765 0.330422C63.1323 0.406869 63.1087 0.493466 63.1079 0.581768V13.4968C63.1077 13.5591 63.0912 13.6202 63.0602 13.6742C63.0291 13.7282 62.9846 13.7732 62.9309 13.8048C62.8767 13.8357 62.8153 13.852 62.7529 13.852C62.6905 13.852 62.6291 13.8357 62.5749 13.8048L60.4669 12.5898C60.3125 12.5009 60.1375 12.4541 59.9594 12.4541C59.7813 12.4541 59.6063 12.5009 59.4519 12.5898L51.0339 17.4478C50.8792 17.5371 50.7508 17.6655 50.6614 17.8201C50.5721 17.9748 50.525 18.1502 50.5249 18.3288V28.0478C50.5249 28.4108 50.7189 28.7458 51.0329 28.9288L59.4509 33.7898C59.7649 33.9718 60.1529 33.9718 60.4679 33.7898L68.8879 28.9288C69.0422 28.8392 69.1704 28.7107 69.2595 28.5561C69.3487 28.4015 69.3957 28.2262 69.3959 28.0478V3.82077C69.3959 3.45277 69.1959 3.11277 68.8749 2.93277L63.8639 0.137768Z" fill="#404137"/>
<path d="M34.2379 12.4069C34.3923 12.3176 34.5676 12.2705 34.7459 12.2705C34.9243 12.2705 35.0996 12.3176 35.2539 12.4069L43.6719 17.2639C43.9859 17.4459 44.1799 17.7819 44.1799 18.1449V27.8669C44.1799 28.2299 43.9859 28.5659 43.6719 28.7479L35.2549 33.6089C35.1002 33.6979 34.9249 33.7447 34.7464 33.7447C34.568 33.7447 34.3926 33.6979 34.2379 33.6089L25.8229 28.7479C25.6686 28.6584 25.5405 28.5299 25.4513 28.3753C25.3622 28.2207 25.3151 28.0454 25.3149 27.8669V18.1439C25.3149 17.7819 25.5089 17.4459 25.8229 17.2639L34.2379 12.4069Z" fill="#83CD29"/>
<path d="M18.9299 18.0641C18.9299 17.6981 18.7379 17.3621 18.4219 17.1811L10.0069 12.3381C9.86557 12.2561 9.70617 12.2105 9.5429 12.2051H9.4559C9.29264 12.2106 9.13327 12.2563 8.99189 12.3381L0.575895 17.1811C0.421072 17.2707 0.292542 17.3995 0.203202 17.5544C0.113862 17.7094 0.0668538 17.8852 0.0668946 18.0641L0.0848947 31.1041C0.0848947 31.2861 0.179895 31.4551 0.338895 31.5431C0.415028 31.5892 0.502359 31.6136 0.591394 31.6136C0.68043 31.6136 0.767761 31.5892 0.843894 31.5431L5.84389 28.6791C6.15989 28.4911 6.35289 28.1601 6.35289 27.7971V21.7051C6.35289 21.3411 6.54489 21.0061 6.85989 20.8241L8.98989 19.5981C9.14385 19.5076 9.31933 19.4603 9.4979 19.4611C9.6719 19.4611 9.8499 19.5051 10.0049 19.5981L12.1329 20.8241C12.4479 21.0061 12.6419 21.3411 12.6419 21.7051V27.7971C12.6419 28.1601 12.8369 28.4931 13.1509 28.6791L18.1509 31.5431C18.228 31.5871 18.3153 31.6102 18.4041 31.61C18.4929 31.6098 18.5801 31.5863 18.657 31.5419C18.7339 31.4975 18.7978 31.4337 18.8423 31.3568C18.8869 31.28 18.9105 31.1929 18.9109 31.1041L18.9299 18.0641Z" fill="#404137"/>
</g>
<defs>
<clipPath id="clip0_502_1191">
<rect width="120" height="34" fill="white"/>
</clipPath>
</defs>
</svg>
