<svg width="79" height="97" viewBox="0 0 79 97" fill="none" xmlns="http://www.w3.org/2000/svg">
<g clip-path="url(#clip0_502_1114)">
<path d="M39.4996 42.9309C43.4722 42.9309 46.6926 39.7105 46.6926 35.7379C46.6926 31.7653 43.4722 28.5449 39.4996 28.5449C35.527 28.5449 32.3066 31.7653 32.3066 35.7379C32.3066 39.7105 35.527 42.9309 39.4996 42.9309Z" fill="#61DAFB"/>
<path d="M39.4998 62.1896C45.1459 67.6811 50.7147 70.9295 55.2006 70.9295C56.6701 70.9295 58.0623 70.6201 59.2225 69.924C63.2443 67.6037 64.7139 61.8029 63.3217 53.5271C63.0897 52.0576 62.7803 50.5881 62.3936 49.0412C63.9404 48.5771 65.3326 48.1131 66.7248 47.649C74.5365 44.6326 78.8678 40.4561 78.8678 35.8928C78.8678 31.2521 74.5365 27.0756 66.7248 24.1365C65.3326 23.5951 63.9404 23.1311 62.3936 22.7443C62.7803 21.1975 63.0897 19.7279 63.3217 18.2584C64.6365 9.82793 63.167 3.9498 59.1451 1.62949C57.985 0.933399 56.5928 0.624023 55.1232 0.624023C50.7146 0.624023 45.0686 3.87246 39.4225 9.36387C33.8537 3.87246 28.285 0.624023 23.799 0.624023C22.3295 0.624023 20.9373 0.933399 19.7771 1.62949C15.7553 3.9498 14.2857 9.75059 15.6779 18.0264C15.91 19.4959 16.2193 20.9654 16.6061 22.5123C15.0592 22.9764 13.667 23.4404 12.2748 23.9045C4.46308 26.9209 0.131836 31.0975 0.131836 35.6607C0.131836 40.3014 4.46308 44.4779 12.2748 47.417C13.667 47.9584 15.0592 48.4225 16.6061 48.8092C16.2193 50.3561 15.91 51.8256 15.6779 53.2951C14.3631 61.5709 15.8326 67.449 19.7771 69.692C20.9373 70.3881 22.3295 70.6975 23.799 70.6975C28.285 70.8521 33.8537 67.6037 39.4998 62.1896ZM35.1686 51.7482C36.5607 51.8256 38.0303 51.8256 39.4998 51.8256C40.9693 51.8256 42.4389 51.8256 43.8311 51.7482C42.4389 53.6045 40.9693 55.3061 39.4998 56.9303C38.0303 55.3061 36.5607 53.6045 35.1686 51.7482ZM25.5779 43.7818C26.3514 45.0967 27.0475 46.3342 27.8982 47.5717C25.5006 47.2623 23.2576 46.8756 21.092 46.4115C21.7881 44.3232 22.5615 42.1576 23.4896 39.992C24.1084 41.2295 24.8045 42.5443 25.5779 43.7818ZM21.092 25.142C23.2576 24.6779 25.5006 24.2912 27.8982 23.9818C27.1248 25.2193 26.3514 26.4568 25.5779 27.7717C24.8045 29.0865 24.1084 30.324 23.4896 31.6389C22.4842 29.3959 21.7107 27.2303 21.092 25.142ZM25.3459 35.7381C26.3514 33.6498 27.4342 31.5615 28.6717 29.4732C29.8318 27.4623 31.1467 25.4514 32.4615 23.4404C34.7818 23.2857 37.1021 23.2084 39.4998 23.2084C41.9748 23.2084 44.2951 23.2857 46.5381 23.4404C47.9303 25.4514 49.1678 27.4623 50.3279 29.4732C51.5654 31.5615 52.6482 33.6498 53.6537 35.7381C52.6482 37.8264 51.5654 39.9146 50.3279 42.0029C49.1678 44.0139 47.8529 46.0248 46.5381 48.0357C44.2178 48.1904 41.8975 48.2678 39.4998 48.2678C37.0248 48.2678 34.7045 48.1904 32.4615 48.0357C31.0693 46.0248 29.8318 44.0139 28.6717 42.0029C27.4342 39.9146 26.3514 37.8264 25.3459 35.7381ZM55.5873 31.5615L53.499 27.6943C52.7256 26.3795 52.0295 25.142 51.1787 23.9045C53.5764 24.2139 55.8193 24.6006 57.985 25.0646C57.2889 27.2303 56.5154 29.3959 55.5873 31.5615ZM55.5873 39.9146C56.5154 42.0803 57.2889 44.2459 57.985 46.3342C55.8193 46.7982 53.5764 47.185 51.1787 47.4943C51.9521 46.2568 52.7256 45.0193 53.499 43.7045C54.1951 42.5443 54.8912 41.2295 55.5873 39.9146ZM57.3662 66.7529C56.7475 67.1396 55.974 67.2943 55.1232 67.2943C51.3334 67.2943 46.6154 64.2006 41.9748 59.56C44.2178 57.1623 46.3834 54.4553 48.549 51.4389C52.1842 51.1295 55.6646 50.5881 58.9131 49.8146C59.2998 51.2068 59.5318 52.599 59.7639 53.9912C60.8467 60.5654 59.9959 65.2834 57.3662 66.7529ZM61.3881 25.9928C70.0506 28.4678 75.2326 32.2576 75.2326 35.7381C75.2326 38.7545 71.6748 41.7709 65.41 44.1686C64.1725 44.6326 62.7803 45.0967 61.3881 45.4834C60.3826 42.3123 59.1451 39.0639 57.5982 35.7381C59.1451 32.4123 60.46 29.1639 61.3881 25.9928ZM55.2006 4.18184C56.0514 4.18184 56.7475 4.33652 57.4436 4.72324C59.9959 6.19277 60.924 10.8334 59.8412 17.485C59.6092 18.7998 59.2998 20.192 58.9904 21.6615C55.742 20.9654 52.2615 20.424 48.6264 20.0373C46.5381 17.0209 44.2951 14.3139 42.0522 11.9162C46.6928 7.35293 51.4107 4.18184 55.2006 4.18184ZM43.8311 19.7279C42.4389 19.6506 40.9693 19.6506 39.4998 19.6506C38.0303 19.6506 36.5607 19.6506 35.1686 19.7279C36.5607 17.8717 38.0303 16.1701 39.4998 14.5459C40.9693 16.1701 42.4389 17.949 43.8311 19.7279ZM21.6334 4.72324C22.2521 4.33652 23.0256 4.18184 23.8764 4.18184C27.6662 4.18184 32.3842 7.27559 37.0248 11.9162C34.7818 14.3139 32.6162 17.0209 30.4506 20.0373C26.8154 20.3467 23.335 20.8881 20.0865 21.6615C19.6998 20.2693 19.4678 18.8771 19.2357 17.485C18.1529 10.9107 19.0037 6.27012 21.6334 4.72324ZM17.6115 45.4834C8.94902 43.0084 3.76699 39.2186 3.76699 35.7381C3.76699 32.7217 7.3248 29.7053 13.5896 27.3076C14.8271 26.8436 16.2193 26.3795 17.6115 25.9928C18.617 29.1639 19.8545 32.4123 21.4014 35.7381C19.8545 39.0639 18.5396 42.3896 17.6115 45.4834ZM19.2357 53.9912C19.4678 52.6764 19.7771 51.2842 20.0865 49.8146C23.335 50.5107 26.8154 51.0522 30.4506 51.4389C32.5389 54.4553 34.7818 57.1623 37.0248 59.56C32.3842 64.1232 27.6662 67.2943 23.8764 67.2943C23.0256 67.2943 22.3295 67.1396 21.6334 66.7529C19.0037 65.2834 18.1529 60.5654 19.2357 53.9912ZM15.9873 85.8568C17.6889 83.7686 17.7662 81.4482 16.8381 79.1279C15.91 76.8076 13.9764 75.7248 11.5787 75.6475C8.71699 75.5701 5.77793 75.6475 2.91621 75.6475H2.3748V95.6795H4.69512V88.0998H8.33027C8.79434 88.0998 9.18106 88.2545 9.41309 88.6412L14.0537 95.8342C14.1311 95.9889 14.3631 96.2209 14.5178 96.2209H17.5342C15.6779 93.3592 13.899 90.6522 12.0428 87.8678C13.667 87.6357 15.0592 87.0943 15.9873 85.8568ZM4.69512 85.7021V78.0451H5.5459C7.3248 78.0451 9.18106 77.9678 10.96 78.1225C13.0482 78.1998 14.5178 79.824 14.5178 81.9123C14.5178 84.0006 12.8162 85.6248 10.7279 85.7021C8.87168 85.7795 7.01543 85.7021 4.69512 85.7021ZM34.6271 86.7076C33.3896 81.2936 28.4396 79.9014 24.6498 81.6029C21.7107 82.9178 20.3959 85.4701 20.3186 88.6412C20.2412 91.0389 20.9373 93.2045 22.7936 94.8287C24.8818 96.685 27.4342 96.917 30.0639 96.4529C31.5334 96.1436 32.8482 95.4475 33.8537 94.3647C33.467 93.8232 33.0803 93.2818 32.6936 92.8178C30.5279 94.674 28.1303 95.2928 25.5006 94.0553C23.799 93.2045 22.9482 91.1162 22.7936 89.5693H34.7818V88.5639C34.8592 87.8678 34.7818 87.249 34.6271 86.7076ZM22.9482 87.9451C22.7162 85.6248 25.0365 83.1498 27.5889 83.1498C30.5279 83.0725 32.3842 84.8514 32.4615 87.9451H22.9482ZM46.6928 81.2162C45.5326 80.9842 44.2951 80.9068 43.135 80.9842C41.2787 81.1389 39.6545 81.9896 38.3396 83.3818C38.7264 83.9232 39.0357 84.4647 39.4998 85.0834C39.6545 84.9287 39.8092 84.774 39.9639 84.6967C41.2014 83.5365 42.6709 82.9178 44.4498 83.0725C45.842 83.1498 47.1568 83.6139 47.5436 85.0061C47.8529 86.0889 47.7756 87.249 47.8529 88.4092C47.6209 88.4092 47.5436 88.3318 47.4662 88.2545C45.61 86.7076 43.5217 86.3982 41.2787 86.9396C39.1904 87.4811 37.8756 89.1053 37.7209 91.1936C37.5662 93.5912 38.649 95.3701 40.7373 96.2209C42.0521 96.7623 43.5217 96.7623 44.9139 96.4529C45.9967 96.2209 46.4607 95.6021 48.0076 94.7514V95.7568H50.1732C50.1732 92.6631 50.2506 88.8732 50.1732 85.3154C50.1732 83.0725 48.8584 81.6803 46.6928 81.2162ZM47.7756 90.9615C47.6982 91.1936 47.7756 91.4256 47.7756 91.6576C47.7756 93.2818 47.3889 93.8232 45.842 94.442C44.7592 94.8287 43.599 94.9834 42.4389 94.5967C41.124 94.21 40.1959 93.0498 40.1959 91.735C40.1186 90.4201 40.9693 89.1053 42.2842 88.7186C44.0631 88.0998 45.6873 88.4865 47.1568 89.5693C47.6209 89.9561 47.9303 90.3428 47.7756 90.9615ZM59.8412 83.3045C61.8522 82.6857 63.7084 83.0725 65.1006 84.774L65.3326 84.9287C65.874 84.4646 66.3381 84.0006 66.9568 83.4592C66.7248 83.2271 66.6475 83.0725 66.4928 82.8404C64.2498 80.4428 59.8412 80.1334 57.1342 82.067C53.3443 84.8514 53.4217 90.2654 55.2779 93.1271C57.0568 95.8342 59.6092 96.7623 62.6256 96.3756C64.4045 96.1436 65.874 95.2928 67.0342 93.8232C66.4928 93.3592 65.9514 92.8951 65.41 92.3537C65.2553 92.5084 65.1779 92.5857 65.1006 92.7404C63.0123 95.0607 59.5318 94.8287 57.6756 92.3537C56.5928 90.8842 56.3607 89.1826 56.6701 87.4811C56.8248 85.5475 57.8303 84.0006 59.8412 83.3045ZM75.9287 93.8232C75.774 93.9006 75.6967 93.9779 75.6967 93.9779C75.0779 94.442 74.4592 94.5193 73.7631 94.2873C73.067 93.9779 72.9896 93.3592 72.9123 92.7404V83.9232C72.9123 83.7686 72.9123 84.0779 72.9897 83.3045H75.9287V80.9842H72.835V77.117H70.5146V81.2936H68.5037C68.349 81.2936 68.117 81.4482 68.117 81.6029C68.0396 82.1443 68.117 82.5311 68.117 83.3045H70.592V93.2045C70.592 94.442 70.9014 95.5248 71.9842 96.1436C73.1443 96.8396 75.3873 96.685 76.3928 95.8342C76.5475 95.7568 76.6248 95.4475 76.6248 95.3701C76.3928 94.9061 76.1607 94.3646 75.9287 93.8232Z" fill="#61DAFB"/>
</g>
<defs>
<clipPath id="clip0_502_1114">
<rect width="79" height="97" fill="white"/>
</clipPath>
</defs>
</svg>
