<svg width="79" height="79" viewBox="0 0 79 79" fill="none" xmlns="http://www.w3.org/2000/svg">
<path d="M54.7381 54.3807C49.1834 65.737 39.4566 73.3777 26.5882 75.8897C24.6151 76.3731 22.5896 76.6094 20.5583 76.5933C13.152 76.5933 6.36297 73.5073 3.06719 68.4526C-1.35804 61.7191 -2.86398 47.4435 11.7263 36.8834C12.0226 38.4943 12.6274 40.7038 13.0286 42.0123C10.1644 44.1401 7.82001 46.8897 6.17164 50.0542C3.45602 55.3867 3.75844 60.713 6.97399 65.6382C9.19586 68.9587 12.7138 70.9769 17.2378 71.5941C22.8884 72.3093 28.6208 71.2297 33.6241 68.5081C41.4686 64.3853 46.6962 59.4602 50.1154 52.7266C49.1486 51.7275 48.5763 50.412 48.5045 49.0235C48.4529 47.5335 48.9944 46.0839 50.0103 44.9928C51.0263 43.9016 52.4336 43.2581 53.9234 43.2034H54.1333C55.5824 43.1962 56.9789 43.7463 58.0337 44.7399C59.0886 45.7336 59.7211 47.0947 59.8004 48.5417C59.8797 49.9886 59.3997 51.4107 58.4597 52.5137C57.5197 53.6166 56.1917 54.316 54.7505 54.4671L54.7381 54.3807ZM72.4329 41.9135C79.9688 50.4554 80.1724 60.5094 77.2593 66.3418C74.5437 71.6681 67.3843 77.0006 57.7562 77.0006C53.2616 76.9089 48.8401 75.8457 44.7952 73.8838C46.2086 72.8778 48.2145 71.267 49.3192 70.2609C52.4384 71.6122 55.7952 72.3297 59.1942 72.3717C65.4278 72.3717 70.1493 69.4586 72.9637 64.1323C74.772 60.6143 74.877 56.4915 73.1674 52.2699C71.0696 46.9583 67.3367 42.4516 62.5085 39.4016C56.1741 35.1315 48.7066 32.8552 41.0674 32.8655H39.2591C38.8374 33.8396 38.1514 34.6762 37.2788 35.2805C36.4061 35.8848 35.3817 36.2327 34.3216 36.2848H34.1302C32.6639 36.2667 31.2624 35.6778 30.2233 34.643C29.1842 33.6082 28.5894 32.2091 28.5653 30.7429C28.5412 29.2766 29.0897 27.8587 30.0942 26.7904C31.0987 25.722 32.4801 25.0873 33.9451 25.0211H34.1488C35.1696 25.0219 36.1705 25.3039 37.0416 25.8364C37.9126 26.3688 38.6201 27.1309 39.0863 28.0391H40.6971C53.5346 28.0391 64.8045 32.9643 72.4329 41.9135ZM21.3606 56.1088C21.2549 55.0839 21.5032 54.0537 22.0642 53.1895C16.4355 43.438 13.4236 31.0757 18.0463 18.2073C21.3606 8.53602 29.705 2 38.753 2C48.4058 2 58.4598 10.4493 59.6633 26.7307C58.1573 26.2308 55.9602 25.4963 54.6394 25.2248C54.3123 19.8984 49.813 6.62891 39.1541 6.82641C35.3338 6.93133 29.705 8.73969 26.8104 12.4552C23.2299 16.8904 21.1469 22.3462 20.8607 28.0391C20.1822 35.8452 22.0137 43.6639 26.0883 50.3566C26.3132 50.2745 26.553 50.2408 26.7919 50.2579H26.9894C28.4822 50.2309 29.9246 50.798 30.9993 51.8345C32.074 52.871 32.693 54.292 32.72 55.7848C32.747 57.2776 32.1798 58.7201 31.1433 59.7948C30.1069 60.8695 28.6859 61.4884 27.1931 61.5154H26.9894C25.533 61.5102 24.1348 60.9432 23.0862 59.9325C22.0376 58.9219 21.4194 57.5455 21.3606 56.0903V56.1088Z" fill="#764ABC"/>
</svg>
