<svg width="155" height="38" viewBox="0 0 155 38" fill="none" xmlns="http://www.w3.org/2000/svg">
<g clip-path="url(#clip0_502_1229)">
<path d="M149.508 5.53402C150.142 6.17394 150.892 6.49374 151.757 6.49374C152.649 6.49374 153.412 6.17394 154.047 5.53402C154.682 4.8941 155 4.13866 155 3.26739C155 2.39613 154.682 1.6337 154.047 0.980096C153.412 0.326496 152.649 0 151.757 0C150.892 0 150.142 0.3268 149.508 0.980096C148.873 1.6337 148.555 2.39613 148.555 3.26739C148.555 4.13866 148.873 4.8941 149.508 5.53402ZM81.1266 13.8879C81.1266 13.9548 81.0727 14.0092 81.0061 14.0092H76.5462V22.5042C76.5462 23.2122 76.7218 23.7293 77.0733 24.0561C77.4245 24.3829 77.9379 24.5668 78.6136 24.6076C79.1991 24.6428 79.9063 24.6425 80.7355 24.6064L80.9386 24.5969L80.9998 24.5939C81.0161 24.5931 81.0325 24.5956 81.0478 24.6013C81.0632 24.607 81.0772 24.6158 81.0891 24.6271C81.101 24.6384 81.1105 24.652 81.117 24.6671C81.1235 24.6822 81.1268 24.6985 81.1269 24.7149V29.257C81.1269 29.2868 81.1159 29.3155 81.096 29.3376C81.0762 29.3598 81.0489 29.3738 81.0194 29.377L80.9377 29.3862C77.4438 29.7613 74.9735 29.4141 73.5268 28.3444C72.0537 27.2551 71.3174 25.3083 71.3174 22.5039V14.0092H67.9116C67.8797 14.0092 67.849 13.9963 67.8264 13.9736C67.8038 13.9509 67.7912 13.9201 67.7912 13.8879V9.06589C67.7912 8.99901 67.845 8.9449 67.9116 8.9449H71.3174V5.57171C71.3175 5.52478 71.3312 5.47888 71.3567 5.43956C71.3822 5.40023 71.4185 5.36916 71.4612 5.3501L76.377 3.17042C76.3954 3.1622 76.4155 3.15873 76.4355 3.16031C76.4555 3.1619 76.4749 3.16849 76.4917 3.17949C76.5086 3.19049 76.5224 3.20554 76.532 3.22328C76.5416 3.24103 76.5466 3.26089 76.5465 3.28107V8.94459H81.0058C81.0724 8.94459 81.1269 8.99931 81.1269 9.06619L81.1266 13.8879ZM90.6082 12.457C91.0947 11.1498 91.8985 10.1697 93.0198 9.51642C94.0461 8.91845 95.1801 8.59408 96.4214 8.54331L96.5055 8.54027L96.6475 8.53784C96.6634 8.5376 96.6793 8.54054 96.694 8.5465C96.7088 8.55245 96.7223 8.56131 96.7337 8.57254C96.745 8.58377 96.754 8.59716 96.7602 8.61192C96.7663 8.62668 96.7695 8.64252 96.7695 8.65853V14.2004C96.7695 14.316 96.6693 14.405 96.5546 14.3947C95.0469 14.2573 93.6928 14.5914 92.4931 15.3976C91.2367 16.2415 90.6082 17.6439 90.6082 19.604V29.2439C90.6082 29.2761 90.5955 29.307 90.5729 29.3298C90.5502 29.3526 90.5195 29.3654 90.4875 29.3655H85.4999C85.484 29.3654 85.4683 29.3623 85.4537 29.3561C85.4391 29.35 85.4258 29.341 85.4146 29.3297C85.4034 29.3185 85.3945 29.3051 85.3885 29.2903C85.3825 29.2756 85.3794 29.2598 85.3794 29.2439V9.06589C85.3794 8.99901 85.4333 8.9449 85.4999 8.9449H90.4875C90.5541 8.9449 90.6082 8.99901 90.6082 9.06589V12.457ZM108.605 8.37247C111.442 8.37247 113.645 9.36624 115.212 11.3538V9.06528C115.212 8.9984 115.266 8.94429 115.333 8.94429H120.32C120.387 8.94429 120.441 8.9984 120.441 9.06528V29.2439C120.441 29.3108 120.387 29.3649 120.32 29.3649H115.333C115.317 29.3649 115.301 29.3618 115.286 29.3558C115.272 29.3497 115.258 29.3408 115.247 29.3296C115.236 29.3183 115.227 29.305 115.221 29.2903C115.215 29.2756 115.212 29.2598 115.212 29.2439V26.9554C113.645 28.9429 111.442 29.9367 108.605 29.9367C105.902 29.9367 103.586 28.8952 101.653 26.8125C99.7212 24.7295 98.7551 22.1768 98.7551 19.1547C98.7551 16.1324 99.7209 13.5797 101.653 11.497C103.586 9.41397 105.902 8.37247 108.605 8.37247ZM109.577 13.3961C107.956 13.3961 106.618 13.9341 105.564 15.0094C104.511 16.0849 103.983 17.4666 103.983 19.1547C103.983 20.8432 104.51 22.2315 105.564 23.3204C106.618 24.3826 107.956 24.9134 109.577 24.9134C111.199 24.9134 112.543 24.3759 113.61 23.3004C114.678 22.2248 115.211 20.8432 115.211 19.1547C115.211 17.4666 114.678 16.0849 113.61 15.0094C112.543 13.9338 111.199 13.3961 109.577 13.3961ZM136.159 8.37247C138.888 8.37247 141.219 9.41397 143.151 11.4967C145.083 13.5797 146.05 16.1324 146.05 19.1544C146.05 22.1768 145.083 24.7295 143.151 26.8122C141.219 28.8952 138.888 29.9367 136.159 29.9367C133.322 29.9367 131.133 28.9429 129.593 26.9554V37.4121C129.593 37.4442 129.58 37.475 129.557 37.4977C129.535 37.5205 129.504 37.5333 129.472 37.5334H124.485C124.452 37.5334 124.422 37.5206 124.399 37.4978C124.376 37.4751 124.364 37.4442 124.364 37.4121V9.06528C124.364 8.9984 124.418 8.94429 124.485 8.94429H129.472C129.539 8.94429 129.593 8.9984 129.593 9.06528V11.3538C131.133 9.36624 133.322 8.37247 136.159 8.37247ZM135.186 13.3961C133.565 13.3961 132.227 13.9341 131.173 15.0094C130.119 16.0849 129.592 17.4666 129.592 19.1547C129.592 20.8432 130.119 22.2315 131.173 23.3204C132.227 24.3826 133.565 24.9134 135.186 24.9134C136.807 24.9134 138.152 24.3759 139.219 23.3004C140.286 22.2248 140.82 20.8432 140.82 19.1547C140.82 17.4666 140.286 16.0849 139.219 15.0094C138.152 13.9338 136.807 13.3961 135.186 13.3961ZM149.284 29.3652C149.252 29.3652 149.222 29.3524 149.199 29.3298C149.176 29.3071 149.164 29.2763 149.163 29.2442V9.06589C149.164 9.03374 149.176 9.00294 149.199 8.98021C149.222 8.95748 149.252 8.94467 149.284 8.94459H154.272C154.304 8.94467 154.334 8.95748 154.357 8.98021C154.38 9.00294 154.392 9.03374 154.393 9.06589V29.2442C154.392 29.2763 154.38 29.3071 154.357 29.3299C154.334 29.3526 154.304 29.3654 154.272 29.3655L149.284 29.3652ZM55.9482 16.0713C55.2319 15.7308 54.8741 15.2882 54.8741 14.7437C54.8741 14.2263 55.0969 13.818 55.5428 13.5186C55.9888 13.2188 56.5494 13.0693 57.2248 13.0693C58.5205 13.0693 59.499 13.5779 60.1607 14.5953C60.2068 14.6665 60.297 14.6954 60.3739 14.661L64.7856 12.6941C64.8011 12.6873 64.8149 12.6772 64.8262 12.6646C64.8375 12.6519 64.8461 12.6371 64.8512 12.6209C64.8564 12.6047 64.8581 12.5876 64.8562 12.5708C64.8544 12.5539 64.849 12.5376 64.8404 12.523L64.749 12.3688C64.7257 12.3305 64.7036 12.2941 64.6854 12.2655C63.9289 11.0677 62.9507 10.1752 61.7244 9.49544C60.373 8.74669 58.8735 8.37247 57.2248 8.37247C55.036 8.37247 53.2054 8.95098 51.7326 10.1083C50.2598 11.2653 49.5236 12.8513 49.5236 14.8662C49.5236 16.2005 49.8817 17.3098 50.5977 18.195C51.3139 19.0796 52.1852 19.7263 53.2121 20.1345C54.1418 20.5055 55.0911 20.8251 56.0557 21.0918L56.2927 21.1557C57.3196 21.4281 58.1908 21.7345 58.9071 22.0747C59.6231 22.4151 59.9812 22.8575 59.9812 23.4019C59.9812 24.5729 59.0488 25.1584 57.1846 25.1584C55.4096 25.1584 54.1796 24.4972 53.4945 23.1757C53.4671 23.1206 53.4197 23.0782 53.362 23.057C53.3044 23.0359 53.2409 23.0377 53.1845 23.062L48.7855 25.0259C48.7707 25.0324 48.7574 25.0419 48.7464 25.0537C48.7354 25.0655 48.7268 25.0795 48.7212 25.0947C48.7157 25.1099 48.7132 25.126 48.714 25.1422C48.7148 25.1584 48.7188 25.1742 48.7259 25.1888L48.7761 25.2922C50.3134 28.3884 53.1161 29.9367 57.1846 29.9367C59.5083 29.9367 61.4471 29.3719 63.001 28.2416C64.5549 27.1119 65.332 25.4986 65.332 23.4019C65.332 22.0136 64.9736 20.8562 64.2573 19.9302C63.5414 19.0049 62.6701 18.3446 61.6432 17.9497C60.7129 17.5909 59.7636 17.284 58.7996 17.0304L58.5626 16.9696C57.5357 16.7109 56.6645 16.4117 55.9482 16.0713Z" fill="#212067"/>
<path d="M0 13.0732C0 6.91053 0 3.82918 1.90662 1.91459C3.81324 0 6.88176 0 13.0188 0H24.5354C30.6724 0 33.741 0 35.6476 1.91459C37.5542 3.82918 37.5542 6.91053 37.5542 13.0732V24.638C37.5542 30.8007 37.5542 33.882 35.6476 35.7966C33.741 37.7112 30.6724 37.7112 24.5354 37.7112H13.0188C6.88176 37.7112 3.81324 37.7112 1.90662 35.7966C0 33.882 0 30.8007 0 24.638V13.0732Z" fill="#4945FF"/>
<path d="M25.9121 11.4385H13.269V17.9125H19.7158V24.3861H26.1625V11.6899C26.1625 11.6232 26.1361 11.5593 26.0892 11.5121C26.0422 11.465 25.9785 11.4385 25.9121 11.4385Z" fill="white"/>
<path d="M19.4653 17.9131H19.7681V18.2171H19.4653V17.9131Z" fill="white"/>
<path d="M13.269 17.9131H19.466C19.6044 17.9131 19.7164 18.0256 19.7164 18.1642V24.3871H13.5197C13.4533 24.3871 13.3896 24.3606 13.3427 24.3134C13.2957 24.2663 13.2693 24.2023 13.2693 24.1357L13.269 17.9131Z" fill="#9593FF"/>
<path d="M19.7157 24.3861H26.1625L19.9292 30.6452C19.9117 30.6628 19.8894 30.6747 19.8651 30.6796C19.8409 30.6844 19.8158 30.6819 19.7929 30.6724C19.7701 30.6629 19.7505 30.6468 19.7368 30.6262C19.7231 30.6055 19.7157 30.5813 19.7157 30.5564V24.3861ZM13.2687 17.9125H7.1247C7.09995 17.9124 7.07576 17.905 7.05519 17.8912C7.03461 17.8774 7.01857 17.8578 7.00908 17.8348C6.9996 17.8119 6.99709 17.7866 7.00188 17.7623C7.00667 17.7379 7.01854 17.7155 7.036 17.6978L13.2693 11.4385V17.9125H13.2687Z" fill="#9593FF"/>
</g>
<defs>
<clipPath id="clip0_502_1229">
<rect width="155" height="38" fill="white"/>
</clipPath>
</defs>
</svg>
