<svg width="154" height="20" viewBox="0 0 154 20" fill="none" xmlns="http://www.w3.org/2000/svg">
<g clip-path="url(#clip0_502_1220)">
<path d="M15.9014 0C11.661 0 9.0105 2.20281 7.95055 6.60844C9.54078 4.40531 11.396 3.57937 13.5162 4.13031C14.7256 4.44437 15.5904 5.35625 16.5475 6.36562C18.1064 8.00937 19.9108 9.9125 23.852 9.9125C28.0924 9.9125 30.7426 7.70969 31.8025 3.30406C30.2126 5.50719 28.3574 6.33312 26.2372 5.78219C25.0274 5.46812 24.163 4.55625 23.2059 3.54687C21.6466 1.90312 19.8425 0 15.9014 0ZM7.95055 9.9125C3.71044 9.9125 1.05995 12.1153 0 16.5209C1.59023 14.3178 3.44515 13.4919 5.56536 14.0428C6.7751 14.3569 7.63984 15.2687 8.59663 16.2778C10.1559 17.9222 11.9603 19.8247 15.9014 19.8247C20.1415 19.8247 22.7917 17.6222 23.852 13.2166C22.2617 15.4197 20.4065 16.2456 18.2866 15.6947C17.0769 15.3806 16.2121 14.4687 15.255 13.4594C13.6961 11.8156 11.8917 9.9125 7.95055 9.9125Z" fill="url(#paint0_linear_502_1220)"/>
<path d="M47.7016 8.35352H44.9266V13.9341C44.9266 15.4223 45.8665 15.3991 47.7016 15.306V17.5613C43.9867 18.0263 42.5095 16.957 42.5095 13.9341V8.35383H40.4507V5.9357H42.5095V2.81258L44.9266 2.06883V5.9357H47.7016V8.35383V8.35352ZM58.2801 5.9357H60.6972V17.5613H58.2801V15.8873C57.4298 17.1198 56.1094 17.8638 54.3639 17.8638C51.32 17.8638 48.791 15.1898 48.791 11.7485C48.791 8.28414 51.32 5.63352 54.3636 5.63352C56.1094 5.63352 57.4298 6.37727 58.2801 7.58664V5.9357ZM54.7441 15.4688C56.7581 15.4688 58.2801 13.911 58.2801 11.7485C58.2801 9.58602 56.7581 8.0282 54.7441 8.0282C52.7301 8.0282 51.2081 9.58602 51.2081 11.7485C51.2081 13.911 52.7301 15.4688 54.7441 15.4688ZM64.7255 4.19164C63.8749 4.19164 63.1813 3.44789 63.1813 2.58758C63.1821 2.16233 63.3451 1.75473 63.6345 1.45403C63.9239 1.15333 64.3162 0.984029 64.7255 0.983203C65.1348 0.984029 65.5272 1.15333 65.8166 1.45403C66.106 1.75473 66.2689 2.16233 66.2697 2.58758C66.2697 3.44789 65.5758 4.19164 64.7255 4.19164ZM63.517 17.5613V5.9357H65.9338V17.5613H63.517ZM68.7313 17.5613V0.587891H71.1484V17.5613H68.7313ZM86.8366 5.9357H89.3878L85.8741 17.5613H83.5018L81.1744 9.7257L78.8247 17.5613H76.4524L72.9387 5.9357H75.4899L77.6609 13.9576L80.0106 5.9357H82.3158L84.6433 13.9576L86.8366 5.9357ZM92.3866 4.19195C91.5363 4.19195 90.8424 3.44789 90.8424 2.58758C90.8432 2.16233 91.0061 1.75473 91.2955 1.45403C91.585 1.15333 91.9773 0.984029 92.3866 0.983203C92.7959 0.984029 93.1882 1.15333 93.4776 1.45403C93.7671 1.75473 93.93 2.16233 93.9308 2.58758C93.9308 3.44789 93.2369 4.19164 92.3866 4.19164V4.19195ZM91.178 17.5613V5.9357H93.5951V17.5613H91.178ZM102.278 5.6332C104.785 5.6332 106.575 7.40039 106.575 10.4232V17.5613H104.158V10.6788C104.158 8.91195 103.174 7.98195 101.652 7.98195C100.063 7.98195 98.8095 8.9582 98.8095 11.3301V17.5613H96.3924V5.9357H98.8095V7.42383C99.5482 6.21445 100.756 5.6332 102.278 5.6332ZM118.034 1.28539H120.451V17.5613H118.034V15.8873C117.183 17.1198 115.863 17.8638 114.117 17.8638C111.074 17.8638 108.545 15.1898 108.545 11.7485C108.545 8.28414 111.074 5.63352 114.117 5.63352C115.863 5.63352 117.183 6.37727 118.034 7.58664V1.28539ZM114.498 15.4688C116.512 15.4688 118.034 13.911 118.034 11.7485C118.034 9.58602 116.512 8.0282 114.498 8.0282C112.484 8.0282 110.962 9.58602 110.962 11.7485C110.962 13.911 112.484 15.4688 114.498 15.4688ZM128.552 17.8638C125.173 17.8638 122.644 15.1898 122.644 11.7485C122.644 8.28414 125.173 5.63352 128.552 5.63352C130.745 5.63352 132.647 6.81914 133.543 8.63289L131.461 9.88852C130.969 8.7957 129.872 8.09789 128.53 8.09789C126.56 8.09789 125.061 9.65602 125.061 11.7485C125.061 13.841 126.56 15.3991 128.53 15.3991C129.872 15.3991 130.969 14.6782 131.506 13.6085L133.588 14.841C132.647 16.6779 130.745 17.8638 128.552 17.8638ZM137.571 9.14445C137.571 11.2601 143.591 9.98133 143.591 14.2829C143.591 16.6079 141.644 17.8638 139.227 17.8638C136.989 17.8638 135.378 16.8173 134.662 15.1432L136.743 13.8876C137.101 14.9341 137.996 15.5616 139.227 15.5616C140.301 15.5616 141.129 15.1898 141.129 14.2598C141.129 12.1904 135.109 13.3529 135.109 9.19102C135.109 7.00508 136.922 5.63352 139.205 5.63352C141.04 5.63352 142.561 6.51695 143.345 8.05164L141.309 9.23727C140.906 8.3307 140.122 7.91227 139.205 7.91227C138.332 7.91227 137.571 8.30727 137.571 9.14445ZM147.888 9.14445C147.888 11.2601 153.908 9.98133 153.908 14.2829C153.908 16.6079 151.961 17.8638 149.544 17.8638C147.306 17.8638 145.695 16.8173 144.978 15.1432L147.06 13.8876C147.418 14.9341 148.313 15.5616 149.544 15.5616C150.618 15.5616 151.446 15.1898 151.446 14.2598C151.446 12.1904 145.426 13.3529 145.426 9.19102C145.426 7.00508 147.239 5.63352 149.522 5.63352C151.357 5.63352 152.879 6.51695 153.662 8.05164L151.625 9.23727C151.222 8.3307 150.439 7.91227 149.522 7.91227C148.649 7.91227 147.888 8.30727 147.888 9.14445Z" fill="#2D3748"/>
</g>
<defs>
<linearGradient id="paint0_linear_502_1220" x1="-88.3474" y1="634.39" x2="2709.68" y2="2187.2" gradientUnits="userSpaceOnUse">
<stop stop-color="#2298BD"/>
<stop offset="1" stop-color="#0ED7B5"/>
</linearGradient>
<clipPath id="clip0_502_1220">
<rect width="154" height="20" fill="white"/>
</clipPath>
</defs>
</svg>
