<svg width="100" height="100" viewBox="0 0 100 100" fill="none" xmlns="http://www.w3.org/2000/svg">
<g clip-path="url(#clip0_502_1163)">
<path d="M95.2478 0.0732422H4.75255C2.16851 0.0732422 0.0737305 2.16802 0.0737305 4.75207V95.2474C0.0737305 97.8314 2.16851 99.9262 4.75255 99.9262H95.2478C97.8319 99.9262 99.9267 97.8314 99.9267 95.2474V4.75207C99.9267 2.16802 97.8319 0.0732422 95.2478 0.0732422Z" fill="#3178C6"/>
<path fill-rule="evenodd" clip-rule="evenodd" d="M58.0061 77.6703V88.6113C59.994 89.5925 62.1126 90.283 64.2969 90.6618C66.821 91.1278 69.3831 91.357 71.9499 91.3465C74.4515 91.3584 76.9474 91.1062 79.396 90.5941C81.5945 90.1498 83.6921 89.3035 85.5834 88.0978C87.3391 86.9644 88.7862 85.4131 89.795 83.583C91.6017 79.7933 91.8401 75.4438 90.4583 71.4794C89.8752 69.9969 89.0065 68.6434 87.9014 67.4959C86.7152 66.2758 85.3678 65.2236 83.8966 64.3684C82.2028 63.3764 80.4429 62.5018 78.6293 61.7508C77.2029 61.1589 75.919 60.5835 74.7779 60.0248C73.7643 59.5395 72.7943 58.968 71.8786 58.3166C71.1613 57.8138 70.5384 57.1885 70.0384 56.4693C69.6064 55.8164 69.3814 55.0483 69.3929 54.2654C69.3834 53.5449 69.5842 52.8373 69.9706 52.2291C70.3904 51.5927 70.9503 51.0608 71.6075 50.6743C72.4109 50.2013 73.285 49.8606 74.1966 49.6651C75.3157 49.4165 76.4595 49.2968 77.6058 49.3084C78.5699 49.3118 79.5326 49.3809 80.4873 49.5153C81.5182 49.6547 82.5383 49.8656 83.54 50.1465C84.5588 50.4289 85.5553 50.7865 86.5213 51.2163C87.4586 51.6342 88.3552 52.138 89.1995 52.7213V42.5113C87.4417 41.8463 85.6189 41.3682 83.761 41.0848C81.5176 40.7584 79.2523 40.6046 76.9853 40.6248C74.5072 40.6115 72.0364 40.8928 69.6247 41.4629C67.4449 41.961 65.3722 42.8464 63.5052 44.0769C61.7709 45.2322 60.3388 46.7865 59.3292 48.6095C58.2592 50.6339 57.7298 52.9002 57.7922 55.1891C57.7131 58.216 58.7101 61.1728 60.6059 63.5339C62.9317 66.1518 65.8645 68.1588 69.1469 69.3789C70.6447 69.997 72.0414 70.6021 73.3371 71.1941C74.5062 71.7143 75.6298 72.331 76.6965 73.0378C77.5568 73.5974 78.3123 74.3035 78.9289 75.124C79.471 75.8682 79.7586 76.7674 79.7491 77.6881C79.754 78.378 79.5769 79.057 79.2356 79.6566C78.8563 80.3009 78.3234 80.8413 77.6843 81.2293C76.8846 81.7168 76.0098 82.0687 75.0952 82.2706C73.9039 82.537 72.6855 82.6626 71.4649 82.6451C69.0695 82.6407 66.6932 82.2183 64.4431 81.3969C62.0923 80.5486 59.9123 79.2865 58.0061 77.6703ZM39.626 50.4318H53.8908V41.4201H14.1172V50.4318H28.3177V90.5655H39.626V50.4318Z" fill="white"/>
</g>
<defs>
<clipPath id="clip0_502_1163">
<rect width="100" height="100" fill="white"/>
</clipPath>
</defs>
</svg>
