<svg width="148" height="27" viewBox="0 0 148 27" fill="none" xmlns="http://www.w3.org/2000/svg">
<path d="M47.7893 10.4065C47.7893 8.50841 45.2074 6.49254 40.7399 6.49254C35.7229 6.49254 30.2117 9.12361 29.3693 14.3725C28.5088 19.6739 33.1228 22.0302 37.7735 22.0302C42.4245 22.0302 44.8596 20.7342 47.3499 19.0064C45.2073 17.0821 42.4428 17.9724 41.9118 18.1687C41.3258 18.378 40.5751 18.6661 39.037 18.6661C37.2425 18.6661 35.4116 18.0902 35.4116 15.6947C46.9105 14.8832 47.7893 12.3044 47.7893 10.4065ZM42.0947 10.7206C42.0216 11.3096 41.6921 12.3176 35.8695 12.8803C37.0963 9.76505 39.4397 9.52947 40.5202 9.52947C41.5273 9.52947 42.1679 10.0922 42.0947 10.7206ZM22.6128 11.231C22.6128 11.231 20.1413 16.781 19.9395 17.2392C19.8664 16.768 18.0537 6.80664 18.0537 6.80664C13.8423 6.80664 11.5903 8.95333 10.4002 11.218C10.4002 11.218 7.39711 16.781 7.141 17.2522C7.1225 16.8203 6.68313 11.2835 6.68313 11.2835C6.42673 8.5082 2.87473 6.81987 0 6.81987L3.47887 21.9124C7.8917 21.8993 10.2718 19.7657 11.5171 17.501C11.5171 17.501 14.1719 12.5924 14.2817 12.3699C14.3002 12.5792 16.1861 21.9124 16.1861 21.9124C20.6171 21.9124 22.9975 19.9095 24.2792 17.7236L30.4863 6.81987C26.1099 6.81987 23.8031 8.95333 22.6128 11.231ZM64.0484 6.46629C61.3203 6.46629 59.233 7.52661 57.4752 9.08434V9.07132L59.05 0C55.4246 0 52.4767 2.25145 51.909 5.60229L49.1623 21.7946C51.2499 21.7946 53.4653 21.3627 54.6554 20.2631C55.7174 21.2447 57.3104 22.0302 59.6723 22.0302C65.788 22.0302 69.9809 16.9513 69.9809 12.1866C69.9445 7.84072 66.9963 6.46629 64.0484 6.46629ZM63.481 14.2549C62.8402 16.912 60.7711 18.7186 58.7751 18.7186C56.7612 18.7186 55.9006 18.0769 55.9006 18.0769C56.2851 15.747 56.523 14.3202 57.2555 13.0898C57.988 11.8594 59.7273 9.89586 61.54 9.89586C63.316 9.89586 64.1219 11.5846 63.481 14.2549ZM85.2515 6.81946H80.9852L81.0037 6.6624C81.2965 4.67277 81.9556 3.62568 84.1345 3.4556C85.6177 3.35083 86.2768 2.80094 86.4415 2.19896C86.5699 1.7278 86.9725 0.0913394 86.9725 0.0913394C78.4036 0.0520759 75.7121 2.69637 75.0163 6.72791L74.9978 6.81966H74.9062C73.5147 6.81966 71.9769 7.94529 71.7205 9.372L71.6288 9.89565H74.4853L72.0867 24.0588L71.3542 26.5984C71.4458 26.5984 71.5557 26.6114 71.647 26.6114C75.6572 26.5066 78.2203 24.2421 78.788 20.9566L80.6557 9.89565H81.9923C83.3104 9.89565 84.8488 8.95333 85.1234 7.38237L85.2515 6.81946ZM107.443 6.55784C102.518 6.55784 97.867 9.14964 96.4388 13.2204C95.0108 17.2915 97.1712 22.1085 104.422 22.1085C111.654 22.1085 115.829 17.0951 115.829 12.9194C115.829 8.76982 111.893 6.55784 107.443 6.55784ZM109.439 14.1237C109.183 15.9693 108.048 18.7707 104.935 18.7707C101.804 18.7707 102.243 15.4981 102.554 13.9404C102.884 12.2781 104.184 9.90867 106.986 9.90867C109.494 9.90867 109.732 12.0423 109.439 14.1237ZM140.164 11.2308C140.164 11.2308 137.691 16.7808 137.49 17.239C137.417 16.7678 135.604 6.80644 135.604 6.80644C131.393 6.80644 129.141 8.95312 127.951 11.2178C127.951 11.2178 124.948 16.7808 124.691 17.252C124.673 16.8201 124.234 11.2833 124.234 11.2833C123.977 8.508 120.425 6.81966 117.55 6.81966L121.011 21.9122C125.424 21.8991 127.804 19.7655 129.049 17.5008C129.049 17.5008 131.704 12.5922 131.796 12.3697C131.814 12.579 133.7 21.9122 133.7 21.9122C138.131 21.9122 140.511 19.9093 141.793 17.7234L148 6.81987C143.642 6.81987 141.335 8.95312 140.164 11.2308ZM89.2798 0.091546L85.6908 20.7865L84.9586 23.3391C85.05 23.3391 85.1598 23.3523 85.2515 23.3523C89.1148 23.313 91.8615 20.8913 92.374 17.8414L94.4431 5.96888C95.0657 2.343 92.0444 0.0917527 89.2798 0.0917527V0.091546Z" fill="#4353FF"/>
</svg>
